<?xml version="1.0" standalone="no"?>
<!DOCTYPE svg PUBLIC "-//W3C//DTD SVG 20010904//EN"
 "http://www.w3.org/TR/2001/REC-SVG-20010904/DTD/svg10.dtd">
<svg version="1.0" xmlns="http://www.w3.org/2000/svg"
 width="741.000000pt" height="741.000000pt" viewBox="0 0 741.000000 741.000000"
 preserveAspectRatio="xMidYMid meet">
<metadata>
Created by potrace 1.11, written by Peter Selinger 2001-2013
</metadata>
<g transform="translate(0.000000,741.000000) scale(0.100000,-0.100000)"
fill="#000000" stroke="none">
<path d="M3643 7390 c-66 -40 -86 -103 -55 -173 l20 -45 -33 -32 c-101 -98
-115 -291 -59 -792 l16 -136 -42 -56 c-23 -31 -46 -56 -49 -56 -4 0 -52 32
-107 71 -181 128 -284 161 -402 128 -69 -19 -145 -97 -162 -167 -25 -105 17
-218 90 -245 8 -3 -35 -6 -96 -6 l-111 -1 -21 -80 c-59 -219 -235 -457 -457
-616 -75 -53 -305 -174 -332 -174 -18 0 -17 -14 16 -149 16 -66 33 -141 37
-166 l7 -47 -34 2 c-19 1 -37 2 -41 1 -3 -1 21 -56 54 -123 54 -109 62 -131
73 -222 18 -144 28 -306 50 -831 26 -610 131 -1016 381 -1465 184 -331 402
-619 684 -901 141 -142 334 -313 388 -345 2 -1 14 -55 27 -120 42 -206 119
-433 201 -596 l27 -52 35 69 c81 161 144 351 191 572 l26 122 110 87 c152 121
428 401 567 574 362 454 591 895 692 1335 54 237 80 483 96 905 5 151 12 300
15 330 2 30 7 96 10 145 14 217 22 252 85 383 32 67 64 122 71 122 7 0 9 3 5
7 -3 4 -27 6 -52 4 -42 -2 -44 -1 -40 21 3 13 22 92 42 176 20 84 35 154 33
155 -2 2 -31 13 -64 26 -352 137 -654 453 -743 776 l-19 70 -113 3 -114 3 35
17 c96 48 108 243 21 336 -70 74 -197 96 -309 54 -32 -11 -113 -59 -181 -105
-138 -93 -129 -93 -186 -14 -33 44 -34 48 -25 101 21 127 39 376 39 526 0 196
-16 264 -81 337 -38 44 -40 48 -25 69 22 31 20 106 -4 145 -37 62 -124 82
-187 43z m142 -16 c40 -26 61 -89 45 -138 -15 -46 -51 -77 -97 -83 -108 -14
-179 93 -123 185 36 59 116 75 175 36z m-145 -222 c0 -4 -16 -15 -35 -24 -40
-18 -44 -14 -12 13 23 19 47 25 47 11z m200 -17 l23 -25 -24 0 c-36 -1 -100
-32 -209 -105 -54 -36 -103 -65 -109 -65 -16 0 -14 29 6 89 15 48 20 53 77 80
44 20 72 27 101 24 23 -2 50 2 65 11 36 20 44 19 70 -9z m53 -85 l17 -35 -44
-5 c-24 -3 -66 -19 -92 -36 -27 -17 -85 -54 -129 -82 -44 -28 -95 -54 -112
-58 -32 -6 -33 -6 -32 27 2 31 2 32 6 6 6 -38 27 -29 31 12 3 30 1 32 -20 26
-13 -3 -4 5 19 18 23 14 70 45 105 70 147 105 218 121 251 57z m25 -106 c3
-39 2 -41 -36 -52 -22 -7 -88 -42 -148 -78 -120 -73 -201 -114 -224 -113 -8 0
-4 5 10 10 23 8 25 14 22 47 -3 20 -10 40 -16 44 -7 5 -5 8 5 8 9 0 52 23 95
52 164 108 206 129 249 126 39 -3 40 -4 43 -44z m-5 -81 c-18 -3 -23 -11 -23
-34 0 -23 5 -29 23 -30 17 -1 16 -3 -8 -8 -41 -10 -100 -42 -225 -119 -58 -36
-120 -71 -137 -79 l-33 -13 1 37 c2 31 3 33 6 10 3 -16 9 -27 14 -25 6 2 10 7
10 11 -1 4 -1 19 -1 33 0 19 -4 25 -15 21 -8 -4 -17 -2 -20 2 -2 5 8 11 23 14
15 3 70 32 122 63 163 100 212 124 250 122 23 0 27 -2 13 -5z m-406 -110 c-3
-10 -5 -2 -5 17 0 19 2 27 5 18 2 -10 2 -26 0 -35z m413 7 c0 -5 -3 -9 -7 -9
-23 4 -29 -4 -25 -36 5 -42 19 -46 25 -7 l4 27 2 -30 c1 -27 -3 -31 -39 -43
-22 -7 -102 -50 -178 -96 -162 -99 -182 -107 -182 -74 0 13 -3 32 -6 44 -4 15
1 23 23 33 15 7 75 42 133 78 105 67 215 123 238 123 6 0 12 -4 12 -10z m-1
-142 c-2 -31 -2 -31 -6 -5 -2 15 -9 25 -14 22 -12 -8 -12 -75 1 -75 23 0 8
-18 -20 -24 -17 -3 -85 -39 -153 -79 -132 -80 -187 -110 -192 -105 -1 2 -5 24
-8 51 -5 34 -3 47 6 47 7 0 75 39 151 86 194 120 237 135 235 82z m-11 -134
c-3 -31 -8 -38 -38 -48 -20 -7 -92 -51 -160 -98 -69 -47 -134 -88 -145 -92
-18 -5 -21 -1 -23 31 -2 20 -5 40 -8 44 -2 4 6 11 18 15 12 3 75 40 141 81
125 79 171 102 200 103 15 0 18 -7 15 -36z m-12 -106 c-3 -24 -5 -44 -5 -45
-1 -2 -7 -3 -14 -3 -7 0 -52 -25 -100 -55 -83 -53 -89 -55 -154 -55 -67 1 -68
1 -40 16 16 9 77 49 137 90 160 109 185 117 176 52z m-10 -90 c-3 -13 -6 -33
-6 -45 0 -22 -4 -23 -82 -23 l-83 0 75 45 c86 51 105 56 96 23z m-785 -4 c66
-19 116 -47 239 -135 l95 -68 -3 -45 c-5 -56 -5 -56 -120 48 -101 91 -162 131
-223 146 -134 34 -276 -70 -255 -185 9 -46 51 -95 82 -95 33 0 74 42 74 76 0
23 -3 25 -26 20 -59 -15 -100 55 -52 88 31 22 52 20 84 -7 52 -45 40 -187 -18
-218 -30 -16 -106 -13 -133 5 -34 22 -56 68 -62 130 -11 111 45 201 147 236
68 24 101 24 171 4z m1383 2 c121 -37 182 -144 156 -272 -16 -78 -55 -114
-121 -114 -28 0 -59 5 -70 10 -67 36 -68 206 -2 231 36 13 51 11 73 -11 25
-25 25 -45 -1 -71 -15 -15 -28 -19 -50 -14 -27 6 -29 4 -29 -21 0 -36 36 -74
70 -74 44 0 73 41 78 108 3 47 0 63 -20 92 -32 49 -108 85 -178 85 -78 0 -143
-36 -275 -150 -60 -52 -114 -95 -118 -95 -4 0 -7 21 -5 47 l3 48 95 67 c194
138 282 168 394 134z m-1332 -99 c56 -28 212 -163 203 -177 -3 -4 3 -14 13
-21 15 -13 16 -12 3 4 -20 25 -1 20 32 -8 21 -19 27 -33 27 -65 0 -38 -1 -40
-20 -30 -12 6 -53 39 -91 73 -169 148 -229 187 -287 187 -16 0 -43 5 -60 11
-47 16 -101 -19 -101 -66 0 -38 52 -81 83 -69 21 8 21 -19 0 -40 -54 -55 -123
40 -94 129 32 96 173 130 292 72z m1349 1 c49 -27 69 -62 69 -118 0 -60 -24
-100 -59 -100 -29 0 -43 11 -54 42 -5 13 0 16 25 16 22 -1 38 7 55 26 30 36
29 51 -7 88 -23 23 -36 29 -53 24 -12 -4 -48 -11 -80 -16 -74 -11 -121 -39
-238 -142 -104 -93 -157 -133 -166 -125 -2 3 8 12 24 20 15 8 37 25 48 38 11
12 14 19 8 15 -9 -5 -13 -1 -13 11 0 11 6 25 13 32 6 8 -10 0 -38 -18 l-50
-32 45 38 c24 21 78 69 120 106 71 65 124 100 180 118 41 14 126 2 171 -23z
m-579 -37 l36 -48 -141 -6 c-78 -3 -188 -2 -245 1 l-103 7 37 48 37 47 171 0
172 0 36 -49z m-776 -64 c21 -15 83 -66 136 -114 l97 -88 -47 -3 c-25 -2 -56
-1 -69 3 -27 6 -214 193 -231 230 l-11 24 43 -13 c23 -7 60 -25 82 -39z m1248
25 c-7 -16 -61 -74 -118 -130 l-105 -102 -66 0 -66 0 68 58 c38 32 74 66 82
75 37 45 158 115 218 127 1 0 -5 -13 -13 -28z m-694 -112 l0 -75 -42 -23 c-34
-17 -59 -22 -123 -22 l-80 0 2 48 c0 26 1 68 2 94 1 57 2 57 138 55 l103 -2 0
-75z m270 -22 l0 -98 -82 0 c-69 0 -88 4 -125 26 l-44 26 2 66 c2 63 4 67 28
74 14 3 70 6 124 5 l97 -2 0 -97z m-827 -8 l87 -90 -137 1 c-107 0 -133 3
-115 11 34 17 64 74 66 124 0 24 3 44 6 44 3 0 45 -40 93 -90z m1256 -29 c7
-12 27 -31 44 -41 l32 -20 -141 0 -141 0 91 90 91 89 6 -48 c4 -26 12 -57 18
-70z m-649 -46 c24 -14 22 -14 -35 -14 -57 0 -59 0 -35 14 14 8 30 14 35 14 6
0 21 -6 35 -14z m1028 -92 c16 -75 95 -238 162 -332 68 -95 194 -220 300 -296
83 -59 299 -175 328 -175 10 0 13 -7 10 -22 -3 -13 -20 -91 -39 -175 l-34
-151 -33 -4 c-38 -5 -38 -16 8 185 l27 119 -71 32 c-328 150 -591 427 -701
739 l-28 77 -995 -2 -995 -3 -23 -66 c-101 -302 -333 -554 -664 -724 -87 -44
-110 -60 -106 -73 3 -9 17 -69 31 -132 14 -63 27 -123 29 -132 3 -14 -3 -18
-29 -18 -33 0 -34 1 -45 58 -7 31 -24 108 -40 170 l-28 114 36 15 c336 136
620 403 736 693 19 47 37 103 41 123 l7 37 1052 0 1052 0 12 -57z m-1826 -150
c10 -9 18 -30 18 -49 0 -91 -120 -93 -128 -1 -2 27 2 39 20 51 29 21 67 20 90
-1z m1618 -3 c42 -42 11 -113 -50 -113 -22 0 -39 7 -52 22 -23 30 -23 52 3 85
25 32 70 35 99 6z m-907 -220 c4 -17 2 -18 -15 -9 -21 11 -38 -1 -38 -28 0
-10 -68 -13 -308 -13 l-309 0 -12 -27 c-7 -16 -46 -77 -86 -138 -115 -173
-231 -298 -408 -440 l-37 -30 15 -55 c39 -148 68 -498 44 -542 -7 -13 -5 -27
7 -50 12 -23 14 -36 6 -48 -6 -10 -7 -22 -1 -31 12 -20 11 -29 -5 -29 -9 0
-17 27 -26 93 -6 50 -18 119 -26 152 -7 33 -14 82 -14 109 0 96 -43 335 -75
416 -4 11 13 29 57 60 157 110 355 335 473 535 l56 95 348 0 c339 0 349 -1
354 -20z m87 16 c0 -3 -5 -17 -10 -31 -10 -26 -9 -26 19 -20 27 6 29 4 33 -29
4 -38 -1 -42 -34 -25 -20 11 -21 9 -15 -20 6 -31 6 -31 -34 -31 -36 0 -39 2
-29 19 16 31 13 43 -9 31 -33 -17 -41 -11 -41 30 0 39 1 39 26 29 34 -12 40
-6 26 26 -11 24 -11 25 28 25 22 0 40 -2 40 -4z m758 -68 c120 -216 321 -445
500 -569 l48 -33 -23 -80 c-24 -82 -47 -220 -58 -356 -4 -41 -13 -104 -20
-140 -7 -36 -17 -98 -21 -137 -4 -46 -11 -73 -18 -73 -8 0 -11 17 -9 53 2 28
4 67 4 85 -1 17 -1 47 -1 65 0 17 0 63 0 101 -1 93 27 300 50 384 19 65 19 67
1 82 -10 8 -44 35 -75 59 -132 104 -299 299 -408 478 l-51 83 -309 0 -308 0 0
25 c0 28 -3 29 -31 15 -21 -12 -22 -10 -13 14 5 14 46 16 354 16 l348 0 40
-72z m-1008 -122 c0 -3 -4 -8 -10 -11 -5 -3 -10 -1 -10 4 0 6 5 11 10 11 6 0
10 -2 10 -4z m90 -12 c0 -8 -5 -12 -10 -9 -6 4 -8 11 -5 16 9 14 15 11 15 -7z
m143 2 c8 -19 -15 -37 -32 -26 -17 10 -7 40 13 40 7 0 16 -6 19 -14z m117 -2
c0 -8 -5 -12 -10 -9 -6 4 -8 11 -5 16 9 14 15 11 15 -7z m100 6 c0 -5 -4 -10
-10 -10 -5 0 -10 5 -10 10 0 6 5 10 10 10 6 0 10 -4 10 -10z m-430 -10 c-40
-28 -48 -30 -61 -14 -11 13 -9 14 13 9 15 -4 29 -2 32 4 4 6 13 11 19 11 7 0
6 -4 -3 -10z m97 -12 c-3 -8 -6 -5 -6 6 -1 11 2 17 5 13 3 -3 4 -12 1 -19z
m-60 -10 c-3 -8 -6 -5 -6 6 -1 11 2 17 5 13 3 -3 4 -12 1 -19z m427 13 c3 -5
-1 -14 -9 -21 -12 -10 -13 -16 -3 -29 12 -14 11 -14 -4 -2 -10 7 -18 10 -18 5
0 -5 -5 -2 -10 6 -8 13 -12 12 -27 -4 -17 -18 -17 -18 0 -13 24 9 21 0 -4 -14
-13 -6 -19 -7 -15 -1 3 6 1 12 -5 14 -5 2 -7 11 -4 20 4 11 13 14 23 10 15 -5
15 -4 2 14 -11 15 -11 16 0 7 16 -15 34 -17 25 -4 -4 8 9 15 37 20 4 0 9 -3
12 -8z m-500 -28 c10 4 13 1 9 -9 -3 -7 0 -14 6 -14 6 0 11 4 11 9 0 19 28 19
33 0 4 -16 2 -19 -16 -14 -21 6 -21 5 2 -13 l24 -19 -45 -27 c-25 -14 -52 -26
-62 -26 -22 0 -32 28 -18 51 8 13 8 19 0 21 -7 3 -5 7 6 11 11 5 15 3 10 -5
-5 -8 -2 -9 10 -5 9 4 30 0 46 -8 44 -23 49 -18 10 9 -19 13 -37 22 -40 21 -4
-2 -12 6 -20 18 -12 20 -12 21 3 8 9 -7 23 -11 31 -8z m116 7 c0 -5 -4 -10
-10 -10 -5 0 -10 5 -10 10 0 6 5 10 10 10 6 0 10 -4 10 -10z m88 -15 c-3 -3
-9 2 -12 12 -6 14 -5 15 5 6 7 -7 10 -15 7 -18z m59 3 c-3 -8 -6 -5 -6 6 -1
11 2 17 5 13 3 -3 4 -12 1 -19z m60 -10 c-3 -7 -5 -2 -5 12 0 14 2 19 5 13 2
-7 2 -19 0 -25z m43 22 c0 -5 -4 -10 -10 -10 -5 0 -10 5 -10 10 0 6 5 10 10
10 6 0 10 -4 10 -10z m-415 -9 c3 -5 1 -12 -5 -16 -5 -3 -10 1 -10 9 0 18 6
21 15 7z m234 -145 c6 -16 10 -31 7 -33 -7 -7 -45 105 -51 150 -4 34 -2 29 13
-23 11 -36 25 -78 31 -94z m182 64 c-12 -38 -25 -71 -29 -74 -5 -3 2 25 15 62
12 37 23 76 24 87 0 11 3 14 6 7 3 -7 -5 -44 -16 -82z m159 70 c0 -5 -7 -7
-15 -4 -8 4 -12 10 -9 15 6 11 24 2 24 -11z m-405 -148 c-5 -6 -45 121 -44
142 0 12 11 -15 24 -59 13 -44 22 -81 20 -83z m125 132 c0 -14 -21 -19 -33 -7
-9 9 13 34 24 27 5 -3 9 -12 9 -20z m-120 2 c0 -3 -4 -8 -10 -11 -5 -3 -10 -1
-10 4 0 6 5 11 10 11 6 0 10 -2 10 -4z m58 -51 c0 -16 -2 -15 -8 5 -11 34 -11
60 0 35 5 -11 8 -29 8 -40z m106 28 c-4 -16 -11 -35 -16 -43 -8 -12 -8 -11 -4
3 3 10 6 30 6 43 0 13 5 24 10 24 6 0 8 -11 4 -27z m66 17 c0 -5 -4 -10 -10
-10 -5 0 -10 5 -10 10 0 6 5 10 10 10 6 0 10 -4 10 -10z m-60 -83 c-12 -34
-27 -66 -33 -72 -7 -7 -7 -4 -2 10 5 11 18 48 29 83 12 34 23 57 25 51 2 -6
-7 -38 -19 -72z m201 67 c20 -10 29 -20 25 -30 -3 -9 -6 -20 -6 -25 0 -15 -28
-10 -72 12 l-41 21 29 18 c36 23 30 23 65 4z m-151 -14 c0 -5 -4 -10 -10 -10
-5 0 -10 5 -10 10 0 6 5 10 10 10 6 0 10 -4 10 -10z m-100 -20 c0 -5 -9 -14
-19 -20 -20 -10 -24 2 -8 28 9 13 27 7 27 -8z m-181 -4 c-2 -2 -15 -9 -29 -15
-24 -11 -24 -11 -6 3 16 13 49 24 35 12z m81 -10 c0 -3 -4 -8 -10 -11 -5 -3
-10 -1 -10 4 0 6 5 11 10 11 6 0 10 -2 10 -4z m190 -6 c0 -5 -4 -10 -10 -10
-5 0 -10 5 -10 10 0 6 5 10 10 10 6 0 10 -4 10 -10z m85 -10 c3 0 3 5 -1 11
-3 6 8 3 26 -6 17 -9 29 -19 26 -22 -3 -3 -12 -1 -19 5 -9 8 -24 9 -48 2 -18
-6 -35 -10 -35 -10 -1 0 0 9 3 20 4 15 9 17 23 10 10 -6 21 -10 25 -10z m-331
-6 c5 -12 2 -15 -10 -10 -8 3 -23 6 -32 6 -15 0 -15 2 -2 10 22 14 37 12 44
-6z m-85 -8 c-12 -10 -49 -16 -49 -7 0 5 10 11 23 13 22 4 34 1 26 -6z m151
-6 c0 -5 -4 -10 -10 -10 -5 0 -10 5 -10 10 0 6 5 10 10 10 6 0 10 -4 10 -10z
m85 1 c3 -6 -3 -15 -14 -20 -16 -9 -18 -8 -14 9 6 21 18 26 28 11z m85 -1 c0
-5 -4 -10 -10 -10 -5 0 -10 5 -10 10 0 6 5 10 10 10 6 0 10 -4 10 -10z m180 6
c0 -3 -4 -8 -10 -11 -5 -3 -10 -1 -10 4 0 6 5 11 10 11 6 0 10 -2 10 -4z
m-410 -45 c-1 -19 -42 -52 -57 -47 -15 6 -15 8 1 19 16 12 16 14 3 26 -12 10
-19 10 -36 -1 -17 -10 -23 -10 -33 0 -10 10 -10 14 0 21 13 8 122 -8 122 -18z
m386 -7 c-6 -16 -8 -16 -25 0 -10 9 -25 14 -35 10 -18 -7 -21 -20 -5 -30 8 -4
7 -10 -1 -18 -8 -8 -16 -5 -30 14 -11 14 -20 28 -20 32 0 10 104 26 114 17 5
-4 6 -15 2 -25z m-156 6 c10 0 30 -16 44 -35 15 -19 23 -35 18 -35 -5 0 -15
11 -22 25 -20 37 -44 39 -90 9 l-41 -28 -55 30 -55 29 -27 -33 c-15 -18 -30
-32 -34 -32 -4 0 8 16 26 36 36 40 54 40 108 2 28 -19 28 -19 67 3 22 12 38
27 37 33 -2 6 -1 8 1 4 3 -5 13 -8 23 -8z m-1461 -24 c55 -66 -38 -157 -99
-96 -36 36 -20 97 30 112 20 6 58 -2 69 -16z m1372 11 c-1 -12 -15 -9 -19 4
-3 6 1 10 8 8 6 -3 11 -8 11 -12z m1468 -29 c12 -21 12 -30 2 -57 -33 -79
-154 -34 -125 47 19 54 95 61 123 10z m-1682 -8 c14 -11 22 -20 18 -20 -4 0
-18 9 -32 20 -14 11 -22 20 -18 20 4 0 18 -9 32 -20z m106 6 c3 -8 -2 -16 -13
-19 -16 -4 -17 -2 -7 14 14 23 13 23 20 5z m25 -11 c-3 -3 -9 2 -12 12 -6 14
-5 15 5 6 7 -7 10 -15 7 -18z m196 10 c3 -9 0 -15 -9 -15 -9 0 -12 6 -9 15 4
8 7 15 9 15 2 0 5 -7 9 -15z m116 11 c0 -2 -8 -10 -17 -17 -16 -13 -17 -12 -4
4 13 16 21 21 21 13z m-255 -66 c0 -27 -3 -30 -31 -30 -25 0 -30 4 -30 23 1
26 13 37 41 37 16 0 20 -7 20 -30z m101 15 c23 -9 33 -19 28 -26 -5 -9 -10 -7
-19 4 -7 9 -15 14 -18 10 -4 -3 -2 -12 4 -20 9 -10 5 -13 -23 -13 -33 0 -35 2
-34 30 1 34 11 36 62 15z m-211 -5 c-4 -6 -1 -17 5 -25 10 -12 10 -15 -1 -15
-8 0 -24 -3 -36 -6 -20 -5 -23 -2 -23 19 0 20 6 27 28 30 15 2 28 5 30 6 2 0
0 -4 -3 -9z m315 -10 c0 -5 -9 -6 -20 -3 -25 7 -26 -5 -2 -24 16 -14 16 -14
-1 -9 -10 3 -24 6 -31 6 -8 0 -12 9 -9 23 4 19 10 23 34 19 16 -2 29 -8 29
-12z m-1079 -12 c7 -13 31 -72 54 -133 23 -60 46 -118 50 -127 5 -14 2 -18
-15 -18 -17 0 -29 17 -62 86 -22 47 -42 84 -44 81 -5 -4 25 -91 55 -160 12
-27 21 -61 21 -75 l0 -27 -20 25 c-11 14 -44 71 -72 127 -61 121 -68 175 -29
217 30 32 47 33 62 4z m799 6 c0 -8 -4 -12 -10 -9 -5 3 -10 10 -10 16 0 5 5 9
10 9 6 0 10 -7 10 -16z m100 6 c0 -5 -4 -10 -10 -10 -5 0 -10 5 -10 10 0 6 5
10 10 10 6 0 10 -4 10 -10z m949 -16 c42 -53 15 -159 -74 -299 -41 -64 -44
-67 -45 -40 0 17 16 68 35 115 37 90 49 159 14 80 -45 -101 -62 -128 -83 -132
-20 -4 -18 5 31 135 68 181 80 194 122 141z m-1469 -86 c17 -42 45 -95 61
-118 16 -22 28 -40 26 -40 -2 0 -28 7 -58 16 -59 17 -92 43 -117 89 -16 32
-43 125 -36 125 3 0 16 -7 30 -16 24 -16 26 -16 41 5 8 12 16 21 18 19 1 -2
17 -38 35 -80z m1123 57 c30 19 31 18 16 -45 -21 -93 -78 -145 -179 -164 -29
-5 -32 -4 -19 6 35 28 58 72 111 208 l9 25 18 -24 c17 -23 19 -23 44 -6z
m-677 -83 c-19 -37 -65 -92 -77 -92 -5 0 -5 10 0 23 5 12 12 50 16 84 7 60 8
62 38 65 28 3 32 0 35 -24 2 -15 -4 -40 -12 -56z m104 63 c0 -22 -4 -25 -35
-25 -31 0 -35 3 -35 25 0 22 4 25 35 25 31 0 35 -3 35 -25z m-180 0 c0 -9 -6
-12 -16 -8 -13 5 -13 7 -2 14 17 11 18 11 18 -6z m273 -47 c4 -35 10 -74 13
-88 l7 -25 -31 29 c-36 34 -62 83 -62 120 0 23 4 26 34 26 l33 0 6 -62z m47
47 c0 -2 -7 -5 -15 -9 -9 -3 -15 0 -15 9 0 9 6 12 15 9 8 -4 15 -7 15 -9z
m-465 -15 c-3 -5 -1 -10 4 -10 6 0 11 -7 11 -16 0 -8 -4 -13 -9 -10 -5 4 -11
1 -13 -6 -3 -9 -9 -8 -21 4 -21 21 -21 28 -1 28 8 0 12 5 9 10 -3 6 1 10 10
10 9 0 13 -4 10 -10z m604 -7 c18 -15 18 -17 3 -32 -11 -12 -16 -13 -20 -3 -2
6 -10 12 -18 12 -17 0 -18 7 -1 25 15 18 13 18 36 -2z m-1288 -85 c7 -23 37
-81 65 -129 42 -72 49 -89 36 -91 -19 -4 -57 43 -92 112 -12 23 -24 40 -27 37
-6 -7 30 -89 67 -149 17 -27 30 -61 30 -76 l-1 -27 -35 40 c-55 64 -115 192
-121 262 -3 38 -1 68 7 82 l12 23 22 -21 c13 -12 29 -40 37 -63z m2019 47 c0
-5 -4 -4 -9 4 -8 12 -12 12 -25 2 -20 -17 -21 -32 -1 -25 12 5 15 -2 15 -30 0
-48 20 -47 21 2 2 31 3 32 6 9 10 -64 -53 -206 -136 -307 l-21 -25 0 28 c0 16
16 56 34 90 43 76 71 141 57 133 -6 -4 -24 -33 -42 -66 -36 -69 -59 -92 -78
-81 -10 6 -4 22 25 66 20 33 54 96 75 141 21 45 44 84 51 86 13 5 28 -9 28
-27z m-1345 -25 c3 -5 1 -10 -6 -10 -8 0 -8 -4 1 -15 11 -13 10 -14 -2 -10
-11 5 -15 0 -13 -17 1 -15 1 -16 -2 -4 -4 15 -7 16 -13 5 -7 -10 -9 -8 -7 8 0
12 5 19 9 17 4 -3 8 4 8 15 0 22 14 28 25 11z m612 -7 c-1 -10 -7 -24 -11 -32
-6 -10 -5 -12 2 -7 7 4 12 3 12 -2 0 -20 -28 -20 -33 -1 -3 10 -1 19 4 19 5 0
9 9 9 20 0 11 4 20 10 20 5 0 9 -8 7 -17z m1257 -74 l35 -84 58 2 58 2 -54
-13 c-67 -17 -68 -16 -105 87 -15 42 -29 77 -31 77 -1 0 -26 -34 -55 -76 -34
-49 -49 -79 -43 -85 7 -7 21 7 41 38 42 64 41 45 -2 -26 -85 -140 -138 -283
-172 -461 -16 -83 -19 -153 -20 -565 0 -396 -3 -483 -17 -556 -65 -333 -239
-559 -550 -715 -80 -40 -120 -54 -150 -54 -64 0 -75 14 -25 29 58 18 210 95
283 144 148 100 276 257 335 409 65 169 72 235 70 695 0 244 4 447 10 500 26
214 78 389 157 533 35 64 135 211 141 206 1 -2 18 -41 36 -87z m-3043 9 c178
-253 249 -532 249 -979 0 -171 -3 -209 -14 -209 -7 0 -19 -7 -26 -15 -10 -12
-10 -15 3 -15 8 0 18 6 21 13 3 7 5 7 3 -3 -2 -18 10 -22 38 -14 25 8 35 23
35 53 l0 24 18 -24 c40 -52 38 -99 -3 -99 -27 0 -42 16 -23 23 9 3 6 7 -6 13
-13 5 -21 3 -24 -4 -2 -7 -8 -10 -13 -6 -5 3 -9 0 -9 -6 0 -6 -4 -9 -9 -5 -18
10 -22 -15 -6 -32 16 -16 16 -17 -1 -30 -10 -7 -12 -13 -6 -13 7 0 12 -7 12
-17 0 -15 -1 -15 -18 0 -10 10 -24 17 -30 17 -13 0 -42 51 -42 73 0 7 7 22 16
33 15 18 15 18 5 -2 -6 -12 -7 -24 -4 -28 10 -10 43 -7 43 4 0 6 -3 10 -7 10
-5 0 -7 93 -5 207 5 312 -19 516 -84 705 -28 83 -90 210 -137 277 -17 25 -23
40 -14 32 9 -7 26 -29 38 -48 14 -22 25 -31 31 -25 12 12 -79 155 -93 146 -5
-3 -9 0 -9 5 0 26 23 6 71 -61z m1689 62 c0 -5 -5 -10 -11 -10 -5 0 -7 5 -4
10 3 6 8 10 11 10 2 0 4 -4 4 -10z m180 6 c0 -3 -4 -8 -10 -11 -5 -3 -10 -1
-10 4 0 6 5 11 10 11 6 0 10 -2 10 -4z m-792 -24 c2 -7 -7 -12 -22 -12 -14 0
-26 5 -26 11 0 6 7 8 16 5 9 -4 13 -2 8 5 -4 7 -1 10 6 7 8 -2 16 -10 18 -16z
m830 0 c2 -7 -6 -12 -17 -12 -21 0 -27 11 -14 24 9 9 26 2 31 -12z m-2002 -70
c-31 -86 -39 -92 -101 -75 l-50 13 56 -5 56 -5 28 71 c33 86 43 87 11 1z
m1912 37 c-3 -8 -7 -3 -11 10 -4 17 -3 21 5 13 5 -5 8 -16 6 -23z m-713 11 c3
-5 -1 -10 -10 -10 -9 0 -13 5 -10 10 3 6 8 10 10 10 2 0 7 -4 10 -10z m172 -5
c3 -9 3 -19 -1 -22 -8 -9 -37 18 -30 28 8 14 24 11 31 -6z m428 6 c7 -12 -29
-33 -39 -24 -12 12 -6 25 10 19 8 -3 12 -2 9 4 -3 6 -2 10 4 10 5 0 12 -4 16
-9z m160 -1 c3 -5 -1 -10 -10 -10 -9 0 -13 5 -10 10 3 6 8 10 10 10 2 0 7 -4
10 -10z m-130 -19 c-3 -6 -11 -11 -17 -11 -6 0 -6 6 2 15 14 17 26 13 15 -4z
m-654 -1 c23 -13 25 -27 4 -27 -8 0 -15 7 -15 14 0 8 -4 12 -9 8 -5 -3 -12 -1
-16 5 -8 13 11 13 36 0z m154 0 c3 -5 2 -10 -4 -10 -5 0 -13 5 -16 10 -3 6 -2
10 4 10 5 0 13 -4 16 -10z m665 0 c0 -5 -7 -10 -16 -10 -8 0 -12 -4 -9 -10 4
-6 -1 -7 -11 -3 -16 6 -15 7 2 20 21 16 34 17 34 3z m-759 -27 c13 -15 12 -15
-8 -4 -24 12 -29 21 -14 21 5 0 15 -7 22 -17z m689 13 c0 -2 -8 -10 -17 -17
-16 -13 -17 -12 -4 4 13 16 21 21 21 13z m-1389 -84 c19 -39 57 -99 83 -133
26 -33 45 -63 42 -67 -9 -8 -52 35 -93 95 -20 29 -38 53 -40 53 -10 0 3 -26
49 -96 56 -85 73 -130 35 -97 -66 60 -164 222 -139 230 6 3 12 15 12 27 0 12
5 27 11 33 8 8 7 13 -1 18 -15 9 -29 -11 -31 -45 -2 -23 -2 -23 -6 -3 -5 27
14 66 30 60 7 -2 28 -36 48 -75z m819 68 c0 -5 -7 -6 -17 -3 -12 5 -14 3 -8
-7 5 -8 3 -11 -5 -8 -26 8 -22 28 4 28 14 0 26 -4 26 -10z m65 0 c-3 -6 -21
-17 -38 -26 -36 -19 -31 -9 10 17 34 21 36 22 28 9z m345 -27 c0 -7 -39 17
-46 28 -3 6 5 3 20 -6 14 -10 26 -19 26 -22z m64 22 c-4 -8 -10 -15 -16 -15
-5 0 -6 5 -2 12 5 8 2 9 -9 5 -9 -3 -19 -2 -22 3 -4 6 7 10 24 10 23 0 29 -4
25 -15z m820 1 c-15 -12 -17 -17 -6 -27 6 -7 12 -21 12 -32 0 -10 5 -15 10
-12 50 31 -72 -179 -139 -239 -36 -33 -26 8 18 72 40 60 75 122 67 122 -2 0
-24 -28 -49 -63 -47 -66 -74 -93 -83 -85 -3 3 19 39 49 80 29 41 64 99 76 129
23 52 36 69 55 69 6 0 1 -6 -10 -14z m-2635 -63 l-20 -60 -67 13 c-37 7 -84
15 -106 19 -21 3 -36 8 -35 10 3 3 63 -3 182 -18 14 -1 24 11 39 51 27 72 33
60 7 -15z m3117 12 c17 -51 20 -55 43 -50 52 10 174 25 178 21 2 -2 -29 -9
-69 -16 -40 -6 -88 -15 -106 -20 -23 -6 -34 -5 -37 3 -34 93 -40 117 -31 117
3 0 13 -25 22 -55z m-1816 13 c0 -4 -10 -6 -22 -3 -22 6 -54 10 -108 15 -23 2
-23 3 5 9 34 8 125 -7 125 -21z m658 17 c-2 -2 -30 -6 -63 -9 -33 -4 -69 -9
-80 -13 -14 -3 -17 -2 -10 5 14 14 94 29 128 24 15 -3 27 -6 25 -7z m-831 -1
c-3 -3 -12 -4 -19 -1 -8 3 -5 6 6 6 11 1 17 -2 13 -5z m880 0 c-3 -3 -12 -4
-19 -1 -8 3 -5 6 6 6 11 1 17 -2 13 -5z m-2272 -94 c22 -44 43 -80 48 -80 4 0
5 -4 2 -10 -3 -5 -1 -10 5 -10 6 0 8 -6 4 -12 -5 -10 -4 -10 5 -2 10 9 7 23
-13 65 -34 68 -33 89 0 25 48 -92 112 -272 138 -387 45 -200 51 -329 31 -662
-28 -471 -5 -646 119 -884 82 -157 222 -318 387 -444 66 -50 76 -61 72 -83
l-5 -25 -60 42 c-57 40 -177 145 -150 132 20 -10 14 0 -20 31 -32 28 -32 28
-9 2 14 -16 20 -28 13 -28 -6 0 -40 33 -76 73 -170 189 -270 384 -311 607 -27
145 -29 272 -10 582 20 323 15 459 -24 635 -35 154 -111 357 -177 471 -14 23
-21 42 -17 42 4 0 26 -36 48 -80z m84 64 c10 -9 -85 -3 -99 6 -10 6 3 7 40 3
30 -3 57 -7 59 -9z m3578 10 c-3 -3 -12 -4 -19 -1 -8 3 -5 6 6 6 11 1 17 -2
13 -5z m-13 -76 c-167 -324 -218 -611 -183 -1048 17 -218 15 -471 -5 -577 -49
-271 -164 -482 -370 -681 -95 -92 -246 -211 -246 -195 0 5 34 33 76 63 84 61
117 93 120 116 1 9 -1 13 -4 9 -4 -4 -7 -12 -7 -18 0 -7 -7 -12 -16 -12 -22 0
-50 -25 -42 -38 3 -5 2 -7 -4 -4 -10 6 -110 -62 -125 -86 -6 -9 -8 -8 -8 3 0
8 26 33 57 55 32 22 110 92 174 155 291 289 387 573 356 1055 -18 275 -15 603
6 710 32 163 99 364 162 485 27 52 28 27 1 -31 -24 -53 -31 -93 -14 -83 5 3 6
15 2 26 -4 15 -3 18 6 13 9 -5 11 -4 6 3 -4 7 -3 12 2 12 5 0 27 34 48 75 21
41 41 75 45 75 3 0 -13 -37 -37 -82z m-2034 52 c30 -4 47 -8 37 -9 -32 -2 -13
-25 32 -40 31 -10 39 -16 30 -22 -29 -19 -82 -8 -155 31 -78 41 -111 48 -146
29 -19 -10 -19 -12 13 -40 40 -33 51 -35 85 -12 24 15 28 15 69 -5 37 -18 43
-26 47 -57 l4 -37 -33 7 -33 6 6 -71 c5 -50 4 -70 -5 -70 -6 0 -11 4 -11 10 0
5 -19 23 -42 40 -45 33 -97 39 -143 18 -21 -10 -29 -9 -43 5 -15 16 -15 17 3
17 36 0 125 25 122 34 -2 5 -36 31 -76 59 -61 43 -76 49 -91 39 -16 -10 -19
-7 -25 19 -11 47 9 61 60 43 54 -19 62 -18 68 7 6 21 9 22 89 14 46 -4 108
-11 138 -15z m637 -1 c4 -16 11 -19 27 -14 42 12 94 17 99 9 3 -5 3 -21 0 -36
-4 -23 -9 -27 -29 -22 -16 4 -36 -4 -68 -28 -25 -18 -57 -41 -71 -51 -42 -30
-36 -35 73 -54 18 -3 31 -10 29 -17 -4 -12 -20 -12 -79 -1 -52 10 -82 0 -130
-43 l-41 -37 5 73 5 72 -35 -6 c-33 -6 -35 -6 -29 17 4 13 7 29 7 36 0 6 17
21 37 33 35 21 39 21 70 6 44 -21 44 -21 87 13 35 28 36 30 17 40 -35 19 -73
12 -147 -29 -71 -39 -119 -49 -160 -33 -14 5 -6 11 31 23 52 17 68 35 38 43
-10 3 2 6 27 7 25 1 65 5 90 9 25 5 67 9 93 10 42 1 50 -2 54 -20z m1361 14
c-10 -2 -28 -2 -40 0 -13 2 -5 4 17 4 22 1 32 -1 23 -4z m-2555 -21 c8 -9 29
-47 46 -84 24 -54 27 -69 16 -78 -10 -8 -18 0 -36 37 -29 61 -36 41 -8 -23 12
-27 25 -69 29 -93 l7 -44 -18 24 c-34 43 -89 163 -94 204 -4 38 -4 39 4 7 13
-48 21 -51 21 -8 0 33 2 37 20 31 15 -5 18 -3 14 9 -6 17 -32 29 -45 20 -5 -3
-9 0 -9 5 0 17 35 13 53 -7z m1534 0 c-21 -23 -21 -30 0 -28 13 1 19 -11 25
-44 7 -38 4 -53 -17 -95 -13 -27 -36 -65 -50 -84 l-25 -35 0 28 c0 15 14 59
30 98 34 80 33 105 -2 34 -23 -48 -32 -55 -41 -32 -9 24 70 176 91 176 3 0 -2
-8 -11 -18z m41 -13 c-3 -8 -7 -3 -11 10 -4 17 -3 21 5 13 5 -5 8 -16 6 -23z
m-1153 -29 c7 0 16 5 18 10 3 6 4 5 3 -2 -4 -22 -50 -16 -54 7 -2 18 -2 18 8
3 6 -10 17 -18 25 -18z m692 8 c3 6 9 12 14 12 4 0 6 -7 3 -15 -8 -19 -50 -19
-58 0 -4 12 -2 13 16 2 16 -9 22 -9 25 1z m460 -50 c-3 -8 -6 -5 -6 6 -1 11 2
17 5 13 3 -3 4 -12 1 -19z m764 -24 c57 -25 105 -47 106 -48 2 -1 -3 -11 -10
-20 -12 -17 -16 -17 -43 -3 -16 8 -40 18 -54 22 -21 6 -18 0 23 -42 42 -43 46
-51 34 -67 -13 -17 -19 -16 -113 24 -123 53 -116 47 -102 69 11 18 13 18 56 0
24 -10 46 -19 49 -19 2 0 -13 21 -36 47 -31 37 -38 51 -30 65 5 10 11 18 13
18 2 0 50 -21 107 -46z m-2379 -53 c21 -41 50 -89 64 -108 19 -25 22 -33 10
-33 -9 0 -29 19 -46 43 -16 23 -36 51 -45 62 -14 19 -14 18 -4 -10 6 -16 19
-44 30 -62 15 -24 18 -37 11 -50 -9 -14 -14 -10 -41 32 -45 71 -56 111 -40
144 8 14 18 29 24 33 5 4 -2 12 -15 17 -18 8 -20 10 -5 8 13 -1 32 -26 57 -76z
m1678 69 c0 -5 -6 -7 -14 -4 -8 3 -17 1 -21 -5 -3 -6 -1 -11 4 -11 6 0 11 -9
11 -19 0 -11 5 -21 11 -23 16 -5 -1 -56 -42 -127 -26 -44 -33 -51 -40 -38 -7
12 -2 31 16 66 38 76 30 82 -15 13 -61 -95 -78 -78 -19 19 26 45 51 91 55 103
4 11 12 24 18 28 16 11 36 10 36 -2z m-1990 -4 c0 -3 -4 -8 -10 -11 -5 -3 -10
-1 -10 4 0 6 5 11 10 11 6 0 10 -2 10 -4z m986 -4 c14 -9 64 -82 64 -93 0 -5
-5 -8 -12 -6 -6 1 -14 -8 -17 -21 -6 -21 -8 -22 -26 -8 -25 19 -35 20 -35 3 0
-49 -64 -29 -75 24 -10 43 0 47 20 9 9 -18 19 -30 22 -27 2 3 0 15 -7 26 -9
17 -8 21 5 21 10 0 15 10 15 31 l0 30 25 -28 c13 -15 25 -23 25 -16 0 6 -4 15
-10 18 -5 3 -15 15 -20 26 -11 20 3 26 26 11z m275 -21 c-29 -40 -26 -48 4
-14 l26 28 -2 -25 c-2 -41 0 -52 11 -45 13 8 13 -1 0 -26 -18 -32 4 -21 23 12
21 37 26 35 20 -7 -3 -20 -15 -36 -34 -48 -16 -9 -29 -13 -29 -8 0 4 -6 17
-14 27 -14 19 -15 19 -34 2 -19 -17 -20 -17 -26 7 -4 18 -11 24 -22 19 -14 -5
-15 -3 -4 18 26 50 62 89 81 89 20 0 20 0 0 -29z m983 -14 c-1 -23 -11 -50
-27 -71 -34 -43 -136 -131 -144 -123 -3 4 18 32 46 63 29 31 50 59 47 62 -3 2
-28 -17 -56 -44 -28 -27 -58 -53 -68 -58 -18 -10 -18 -10 91 123 82 101 113
114 111 48z m-2572 16 c24 -27 48 -91 48 -127 0 -39 -30 -70 -80 -83 -49 -12
-76 -6 -100 24 -15 19 -26 24 -44 19 -35 -9 -44 31 -11 46 19 9 23 16 18 38
-3 15 0 37 7 50 24 45 132 67 162 33z m389 -25 c19 -24 56 -69 83 -101 27 -31
47 -59 45 -62 -3 -2 -33 21 -68 53 -69 60 -70 43 -2 -23 40 -38 50 -55 32 -55
-4 0 -38 28 -75 61 -64 59 -97 104 -95 131 0 7 5 1 11 -14 12 -35 27 -37 20
-3 -3 19 0 25 14 25 18 1 18 1 0 15 -11 8 -15 15 -9 15 6 0 26 -19 44 -42z
m176 10 c-3 -8 -6 -5 -6 6 -1 11 2 17 5 13 3 -3 4 -12 1 -19z m459 -4 c10 -8
14 -13 8 -10 -5 2 -30 0 -54 -5 -34 -8 -46 -7 -57 4 -12 12 -10 14 17 15 18 0
35 3 38 6 10 10 28 6 48 -10z m907 4 c15 -11 11 -13 -25 -16 -24 -1 -51 -5
-62 -8 -26 -8 -11 15 18 26 30 12 50 12 69 -2z m-1069 -168 c85 -124 88 -149
32 -253 -45 -85 -48 -136 -10 -174 23 -23 31 -25 77 -20 38 5 47 3 34 -4 -24
-14 -13 -27 39 -50 35 -16 45 -26 54 -57 14 -53 13 -66 -11 -80 -18 -11 -24
-11 -40 4 -29 26 -31 12 -5 -21 l24 -30 24 20 23 19 -23 -24 -23 -25 -30 34
-29 35 -29 -28 -28 -27 -22 27 c-11 15 -21 32 -21 38 0 6 8 -1 18 -16 21 -34
32 -35 62 -3 13 14 18 25 12 25 -6 0 -14 -4 -17 -10 -10 -16 -42 -12 -49 6 -5
13 -15 15 -49 11 -37 -6 -39 -5 -17 5 l25 11 -25 5 c-29 5 -40 18 -40 50 0 13
-4 20 -10 17 -5 -3 -10 0 -10 7 0 9 -14 13 -42 13 -42 0 -43 1 -44 35 l-2 35
5 -32 c4 -30 8 -33 38 -33 42 0 56 17 18 22 -22 2 -29 9 -31 31 -2 15 -8 25
-13 22 -9 -6 -13 8 -10 33 1 6 -5 12 -12 12 -25 0 -39 26 -22 40 8 7 15 17 15
23 0 6 -11 0 -25 -13 -32 -30 -32 -48 0 -56 14 -4 24 -9 21 -12 -3 -2 -19 1
-36 8 -30 12 -30 13 -14 37 8 14 14 26 12 28 -12 11 -111 55 -115 52 -2 -3 13
-15 33 -28 21 -13 42 -27 46 -30 5 -3 6 -13 2 -22 -5 -15 -9 -15 -41 -2 -47
20 -91 52 -104 77 -6 12 -7 18 -1 14 14 -8 22 67 8 76 -7 5 -6 8 4 8 8 0 30
-15 50 -34 37 -36 105 -76 129 -76 11 0 11 -3 1 -15 -16 -19 -1 -19 25 1 17
13 18 16 5 24 -8 5 -18 10 -23 10 -4 0 -21 21 -37 47 l-30 47 22 13 c13 7 35
12 49 13 31 0 41 18 32 60 -5 26 -3 30 16 30 28 0 27 17 -1 23 -20 4 -19 4 4
6 24 1 29 7 39 46 11 44 12 45 30 29 11 -9 19 -13 19 -8 -1 10 -46 64 -55 64
-3 0 -5 -12 -6 -27 0 -16 -3 -22 -6 -15 -3 7 -2 24 1 39 6 23 8 24 24 10 10
-9 49 -62 86 -117z m1273 62 l-4 -37 -1 43 c-1 23 -6 42 -11 42 -9 0 -61 -64
-61 -76 0 -4 11 3 25 16 l25 23 0 -37 c0 -22 4 -35 10 -31 6 3 10 -1 10 -9 0
-10 10 -17 28 -17 l27 -2 -27 -4 c-35 -5 -37 -23 -3 -23 14 0 25 -1 25 -3 0
-1 -4 -17 -9 -35 -11 -37 0 -43 18 -9 11 21 8 5 -5 -28 -5 -11 1 -15 21 -15
34 0 65 -17 65 -35 0 -8 -20 -36 -45 -61 l-44 -47 24 -19 c40 -32 51 -59 29
-75 -10 -7 -25 -13 -33 -12 -9 0 -4 5 12 11 31 11 33 16 11 46 -20 28 -39 29
-24 1 13 -23 14 -22 -19 -39 -17 -9 -20 -14 -11 -20 9 -6 8 -9 -7 -14 -12 -4
-19 -15 -18 -33 0 -23 -5 -29 -30 -34 -23 -5 -26 -7 -13 -13 9 -4 27 -6 40 -4
20 3 23 8 22 43 l-2 40 10 -32 c17 -51 5 -66 -46 -61 l-44 5 5 -38 c7 -46 -3
-89 -19 -89 -9 0 -9 3 0 12 14 14 16 98 2 98 -5 0 -10 -16 -10 -35 0 -29 -4
-35 -21 -35 -24 0 -38 -12 -64 -57 -23 -39 -34 -41 -66 -12 l-24 21 29 -17
c29 -17 30 -17 48 5 24 30 23 48 -2 25 -16 -14 -25 -16 -43 -8 -20 9 -26 6
-50 -28 -30 -41 -45 -47 -65 -27 -21 21 -13 32 9 12 20 -18 21 -18 40 6 24 32
24 48 0 26 -27 -25 -61 -6 -61 33 0 44 20 91 38 91 10 0 33 10 52 21 32 20 33
22 16 35 -17 12 -13 13 31 8 46 -6 51 -4 76 26 36 43 34 71 -13 169 -44 91
-48 117 -24 164 22 42 100 154 133 190 21 23 26 25 34 12 4 -8 6 -32 4 -53z
m-1556 -4 c12 -24 36 -63 53 -88 18 -25 36 -54 40 -65 8 -23 6 -21 -53 48 -53
62 -53 47 0 -26 49 -69 29 -80 -25 -14 -56 68 -91 159 -69 180 16 16 34 4 54
-35z m1773 33 c3 -5 -2 -8 -11 -7 -9 0 -18 -5 -21 -13 -3 -8 0 -11 7 -7 7 5
11 -1 11 -16 0 -18 2 -20 10 -8 18 28 11 -11 -10 -55 -20 -41 -95 -123 -105
-114 -2 3 13 30 35 60 54 75 50 83 -10 18 -54 -57 -50 -37 6 42 19 26 39 61
45 78 11 30 32 41 43 22z m-2028 -14 c34 -20 144 -123 144 -135 0 -18 -8 -15
-64 24 l-51 36 61 -59 c90 -86 89 -104 -3 -41 -95 66 -155 152 -126 181 9 9
14 8 39 -6z m1091 -54 c16 -39 18 -77 3 -53 -10 17 -11 16 -29 -25 l-13 -29
-18 24 -18 24 -20 -24 -20 -25 -13 28 c-16 34 -20 34 -43 -6 l-19 -32 -8 40
c-4 22 -8 54 -7 70 0 25 2 23 11 -15 l12 -45 3 43 c3 35 6 41 17 32 10 -8 15
-8 21 2 5 8 12 -3 21 -32 l13 -45 -4 57 -5 57 25 -15 c13 -9 24 -20 24 -24 0
-15 20 -63 25 -58 2 2 0 21 -6 42 -14 49 -6 74 18 55 9 -8 22 -28 30 -46z
m107 42 c3 -8 1 -27 -4 -41 -17 -45 -9 -61 9 -19 18 39 50 76 52 59 0 -5 1
-31 0 -59 0 -51 2 -51 13 -2 4 15 11 25 17 22 5 -4 17 -1 26 6 14 12 15 9 8
-29 -4 -28 -3 -42 4 -42 6 0 11 11 11 24 0 14 5 28 11 32 9 5 10 -4 4 -32 -5
-21 -8 -47 -9 -56 -1 -26 -9 -22 -29 14 l-18 32 -18 -28 -19 -28 -16 24 -17
23 -20 -24 c-17 -21 -22 -22 -30 -10 -5 7 -9 22 -9 32 0 20 -11 22 -29 5 -11
-11 -12 -8 -6 12 12 39 45 100 54 100 5 0 11 -7 15 -15z m1032 0 c-18 -14 -19
-15 -2 -15 15 0 17 -5 12 -26 -8 -31 11 -24 24 10 7 17 9 18 9 3 2 -37 -176
-193 -197 -173 -3 4 23 33 59 66 70 65 73 77 8 30 -72 -52 -64 -20 12 51 41
37 79 68 84 68 6 0 1 -6 -9 -14z m318 -30 c-1 -6 -4 -19 -8 -30 -5 -19 3 -23
89 -45 96 -24 100 -27 89 -53 -4 -12 -19 -11 -97 9 -95 24 -106 22 -107 -18 0
-20 -8 -22 -29 -9 -12 8 -11 21 4 85 16 68 21 77 39 74 12 -2 20 -8 20 -13z
m-3129 -180 c39 -161 49 -287 40 -495 -9 -216 -21 -414 -23 -385 -1 11 -11
209 -22 439 -18 385 -22 452 -35 556 -4 32 -4 33 6 10 6 -14 21 -70 34 -125z
m535 131 c0 -3 -4 -8 -10 -11 -5 -3 -10 -1 -10 4 0 6 5 11 10 11 6 0 10 -2 10
-4z m1930 -6 c0 -5 -2 -10 -4 -10 -3 0 -8 5 -11 10 -3 6 -1 10 4 10 6 0 11 -4
11 -10z m418 -11 c3 -11 2 -11 -7 1 -9 13 -12 13 -28 -2 -12 -13 -13 -18 -4
-18 9 0 11 -8 6 -27 -6 -24 -5 -25 11 -12 16 13 16 12 6 -8 -18 -32 -172 -138
-172 -117 0 3 24 29 53 56 28 28 41 43 27 34 -54 -35 -79 -46 -95 -40 -11 5
-3 14 32 36 27 17 70 50 97 75 49 44 66 49 74 22z m-2187 -104 c16 -9 27 -20
24 -25 -10 -16 -24 -12 -71 20 -58 40 -57 24 1 -20 60 -45 59 -67 -2 -32 -53
29 -133 102 -133 121 0 7 9 3 20 -10 l20 -24 -10 28 c-7 19 -6 27 1 27 6 0 9
7 5 15 -3 8 22 -7 55 -35 33 -27 74 -57 90 -65z m110 83 c12 -18 34 -45 48
-61 19 -21 22 -30 13 -39 -9 -9 -18 -6 -39 13 -29 26 -20 9 22 -41 12 -14 29
-38 39 -53 l17 -28 -38 20 c-49 25 -98 76 -117 123 -20 46 -20 65 -1 23 13
-27 14 -28 15 -7 0 13 5 32 11 44 14 27 1 38 -17 14 -8 -11 -14 -15 -14 -10 0
12 21 34 31 34 4 0 18 -15 30 -32z m1849 -19 c0 -59 -46 -124 -120 -168 -63
-38 -59 -26 23 73 33 41 36 58 4 27 -21 -19 -25 -20 -37 -6 -7 8 -8 15 -4 15
5 0 29 25 52 55 37 47 46 54 63 45 12 -7 19 -21 19 -41z m771 -75 c-6 -66 -13
-175 -16 -244 -3 -69 -10 -219 -15 -335 -6 -115 -11 -235 -11 -265 -1 -30 -7
19 -15 110 -15 200 -17 480 -4 575 13 86 60 288 67 282 2 -3 0 -58 -6 -123z
m-964 84 c-3 -8 -6 -5 -6 6 -1 11 2 17 5 13 3 -3 4 -12 1 -19z m-2110 -45 c8
-32 8 -43 -2 -47 -8 -3 -18 7 -24 24 -9 26 -13 29 -33 21 -16 -6 -22 -16 -20
-32 2 -21 -12 -38 -30 -39 -5 0 -8 9 -8 19 0 27 -14 33 -56 25 -33 -6 -36 -9
-30 -35 10 -50 -20 -34 -33 17 -7 26 -11 48 -9 49 9 8 224 51 229 46 3 -3 11
-25 16 -48z m590 35 c-3 -8 -6 -5 -6 6 -1 11 2 17 5 13 3 -3 4 -12 1 -19z
m814 -63 c4 -3 4 6 1 21 -3 18 -1 25 6 20 15 -9 25 -82 14 -102 -9 -15 -11
-15 -25 7 -8 13 -17 51 -20 84 -5 59 -5 60 6 18 7 -23 15 -44 18 -48z m-226
38 c-11 -62 -40 -118 -73 -142 l-31 -21 20 55 c10 30 19 61 19 69 0 7 7 19 15
26 12 10 13 7 5 -22 -12 -40 -12 -40 -1 -34 5 3 12 17 15 30 18 74 43 104 31
39z m289 -8 c9 -44 24 -55 18 -12 -6 46 12 22 28 -36 17 -62 3 -81 -34 -44
-26 26 -51 99 -42 124 9 22 23 7 30 -32z m81 -25 l15 -35 -5 35 c-4 33 -4 34
10 16 8 -11 15 -29 15 -40 0 -12 9 -40 20 -64 17 -38 17 -41 2 -33 -47 25 -93
110 -91 170 0 29 -2 32 34 -49z m-294 24 c-5 -45 -49 -114 -73 -114 -12 0 -10
41 3 81 16 47 31 61 23 21 -9 -46 3 -40 16 9 13 46 37 49 31 3z m44 -74 c-9
-17 -20 -28 -25 -25 -15 10 -12 79 5 101 14 18 15 17 9 -11 -4 -23 -3 -26 5
-15 6 8 12 26 13 40 1 14 3 6 5 -17 3 -26 -2 -54 -12 -73z m59 1 l-7 -26 -13
30 c-13 30 -19 94 -8 82 4 -3 10 -21 14 -39 8 -33 8 -33 11 12 l2 45 4 -39 c3
-22 1 -51 -3 -65z m-750 73 c3 -8 2 -12 -4 -9 -6 3 -10 10 -10 16 0 14 7 11
14 -7z m-426 -45 c-22 -12 -23 -29 -2 -55 15 -18 15 -18 10 5 -11 51 11 52 87
5 75 -47 110 -82 62 -64 -14 5 -40 17 -58 25 l-32 16 29 -24 c16 -14 50 -35
77 -48 47 -21 63 -39 37 -39 -24 1 -150 59 -184 85 -45 34 -62 69 -44 90 7 8
18 15 24 15 6 0 3 -5 -6 -11z m2346 2 c4 -5 -2 -7 -12 -4 -16 4 -18 -1 -18
-31 1 -41 3 -43 23 -18 13 15 13 15 3 -6 -14 -29 -76 -68 -156 -98 -72 -27
-74 -27 -74 -16 0 5 16 16 35 25 55 26 117 68 111 74 -3 3 -11 1 -18 -5 -22
-17 -88 -41 -88 -32 0 11 159 118 177 119 6 1 14 -3 17 -8z m-201 -42 c24 -39
-31 -116 -108 -150 -35 -16 -42 -16 -54 -4 -8 8 -13 16 -10 18 2 2 26 16 52
31 64 36 54 45 -13 11 -40 -20 -55 -24 -65 -15 -12 10 -3 17 43 41 32 15 71
42 87 59 31 32 51 35 68 9z m437 -5 c0 -20 -4 -25 -22 -22 -15 2 -24 -3 -26
-14 -4 -21 20 -28 103 -31 48 -2 60 1 60 13 0 8 -9 16 -21 18 -16 2 -20 8 -17
26 4 18 10 22 26 18 36 -8 47 -23 47 -62 0 -57 -25 -73 -97 -65 -129 15 -154
32 -138 93 10 39 24 52 56 52 24 0 29 -4 29 -26z m-1510 -14 c0 -11 -11 -48
-25 -82 -14 -34 -23 -63 -21 -65 2 -3 19 25 36 61 59 119 75 94 20 -31 -20
-46 -27 -54 -62 -63 -22 -6 -46 -14 -54 -17 -10 -4 -5 11 14 43 16 27 40 77
52 112 23 62 40 80 40 42z m87 -65 l7 -50 3 40 c5 67 13 91 24 74 13 -20 11
-100 -4 -128 -32 -64 -62 -8 -57 109 2 54 14 33 27 -45z m148 2 c15 -38 38
-84 51 -103 l24 -34 -28 6 c-15 4 -38 10 -52 13 -27 7 -72 87 -84 149 -8 48 9
32 45 -41 17 -34 35 -66 41 -72 12 -11 12 -11 -26 79 -13 33 -22 65 -19 73 8
20 15 9 48 -70z m-349 -14 c-14 -26 -35 -64 -47 -83 l-23 -35 26 23 c14 13 40
50 57 83 28 52 51 81 51 64 0 -14 -61 -138 -80 -162 -11 -14 -48 -42 -83 -62
-54 -32 -66 -36 -94 -27 -18 5 -33 12 -33 17 0 4 21 15 48 25 58 23 132 94
167 164 14 28 29 50 31 47 3 -3 -6 -27 -20 -54z m427 -50 c26 -42 50 -73 53
-70 3 2 -13 33 -35 68 -21 35 -42 75 -46 89 -3 14 8 0 25 -30 43 -77 104 -136
168 -162 48 -20 52 -24 36 -35 -29 -21 -59 -15 -122 23 -64 37 -98 79 -131
157 -23 53 -27 83 -8 53 7 -10 34 -52 60 -93z m-454 57 c-37 -66 -80 -111
-123 -131 -73 -33 -72 -20 4 59 78 81 98 96 60 42 -12 -17 -20 -33 -17 -36 3
-3 15 10 28 28 24 36 60 78 66 78 3 0 -6 -18 -18 -40z m524 -41 l28 -34 -21
38 c-12 20 -17 37 -11 37 6 0 11 -4 11 -9 0 -5 30 -38 66 -75 36 -36 58 -66
50 -66 -52 0 -136 70 -172 144 -28 57 -28 57 49 -35z m-1813 47 c0 -21 23 -26
119 -26 l88 0 6 -52 c4 -28 5 -53 3 -55 -2 -2 -48 -7 -102 -11 -93 -7 -99 -8
-102 -29 -2 -13 -9 -23 -16 -23 -9 0 -15 24 -20 77 -9 114 -8 133 9 133 8 0
15 -6 15 -14z m461 -31 c104 -49 110 -54 26 -26 -66 23 -73 20 -19 -8 49 -26
26 -26 -35 0 -68 29 -118 79 -79 79 7 0 55 -20 107 -45z m2237 28 c-3 -18 -83
-66 -128 -77 -20 -5 -18 -3 8 11 49 26 38 33 -18 12 -84 -32 -80 -21 5 17 44
19 84 39 89 44 17 17 48 12 44 -7z m-1090 -98 c-2 -2 -15 -1 -29 2 -24 4 -25
7 -15 39 l11 34 18 -36 c10 -20 17 -37 15 -39z m-124 35 c10 -21 11 -30 3 -30
-7 0 -22 -3 -34 -6 -21 -6 -21 -6 -5 30 9 19 18 35 19 36 1 0 8 -13 17 -30z
m-1136 13 c-21 -5 -21 -8 -8 -34 12 -21 32 -27 25 -6 -3 6 -1 18 4 25 7 12 13
11 37 -1 16 -8 56 -23 89 -33 78 -23 94 -38 33 -30 -27 3 -60 8 -75 11 -57 12
5 -15 79 -35 l73 -20 -59 5 c-84 8 -185 44 -209 77 -21 28 -16 49 11 47 15 -1
15 -2 0 -6z m2356 0 c-15 -3 -21 -12 -21 -29 0 -24 0 -24 19 -7 18 16 19 16
12 0 -13 -34 -104 -69 -223 -85 -82 -12 -66 0 31 22 43 10 81 22 84 28 5 7 -1
9 -17 5 -13 -3 -44 -9 -69 -13 -60 -9 -42 7 35 30 33 10 76 27 95 37 19 10 44
18 55 17 18 -1 18 -1 -1 -5z m-2123 -26 c-8 -10 -7 -19 5 -33 13 -16 15 -16
10 -2 -3 10 -1 20 5 23 5 4 7 11 4 16 -9 13 7 11 41 -5 16 -8 53 -24 82 -37
82 -37 60 -55 -29 -24 -39 14 -42 14 -29 1 8 -9 33 -22 55 -29 22 -8 41 -21
43 -29 3 -13 -4 -14 -42 -7 -65 12 -124 45 -146 81 -18 30 -17 58 2 58 7 0 6
-5 -1 -13z m1865 -17 c4 -16 10 -27 15 -24 12 7 11 41 -1 47 -6 3 -5 4 2 3 25
-5 19 -43 -11 -74 -28 -28 -80 -50 -154 -66 -48 -11 -26 17 36 46 31 15 57 29
57 31 0 3 -23 -2 -50 -10 -28 -8 -59 -12 -68 -8 -12 4 8 17 68 45 47 21 88 39
93 39 4 1 10 -12 13 -29z m-2110 -54 c-2 -47 -16 -59 -16 -13 0 19 -3 44 -7
54 -6 15 -4 16 9 6 8 -8 14 -27 14 -47z m2394 3 c0 -31 -4 -48 -10 -44 -11 7
-13 54 -4 79 10 27 14 18 14 -35z m320 26 c20 -18 27 -69 12 -91 -15 -23 -53
-34 -115 -34 -50 0 -70 5 -91 21 -29 23 -35 63 -13 93 27 37 170 45 207 11z
m-1388 -14 c80 -21 182 -67 174 -79 -2 -4 2 -16 10 -27 8 -10 14 -14 14 -9 0
6 -6 16 -12 23 -11 11 -10 13 2 9 9 -3 14 -14 12 -29 -2 -13 -7 -150 -11 -304
-6 -249 -8 -283 -25 -311 -21 -34 -72 -64 -111 -64 -60 0 -126 -23 -160 -55
-33 -31 -36 -32 -46 -14 -15 29 -81 58 -146 65 -72 8 -116 28 -140 62 -16 24
-19 58 -23 307 -3 193 -9 287 -17 301 -10 18 -9 24 5 37 30 26 123 69 139 63
8 -3 11 -2 8 3 -8 14 110 39 186 40 36 1 100 -8 141 -18z m-1202 -35 c36 -8
83 -20 105 -25 l40 -10 -50 5 c-27 2 -63 7 -79 10 -18 4 -26 2 -22 -4 3 -6 25
-14 49 -18 23 -4 37 -9 30 -11 -17 -6 -133 25 -160 43 -30 19 -30 38 0 31 12
-3 51 -12 87 -21z m2228 7 c-3 -20 -80 -49 -150 -58 l-43 -5 48 13 c55 16 76
32 32 24 -64 -12 -130 -19 -124 -13 3 4 42 13 85 20 43 8 90 19 104 25 38 15
52 13 48 -6z m-2248 -59 c30 -7 76 -16 103 -19 78 -10 57 -28 -25 -21 -72 5
-72 5 -33 -9 22 -7 57 -14 77 -14 20 -1 40 -6 44 -12 5 -9 -9 -10 -52 -5 -108
12 -164 27 -187 49 -14 13 -15 16 -3 7 18 -14 19 -13 13 3 -4 10 -7 22 -7 27
0 5 -6 10 -12 13 -15 5 6 0 82 -19z m200 21 c0 -2 -10 -9 -22 -15 -22 -11 -22
-10 -4 4 21 17 26 19 26 11z m1764 -9 c-3 -8 0 -17 6 -21 8 -5 8 -11 -1 -21
-7 -8 -7 -14 -1 -14 5 0 15 7 22 15 10 12 10 18 0 30 -9 11 -9 15 -1 15 22 0
24 -31 4 -52 -24 -23 -121 -35 -197 -24 -72 11 -54 26 32 27 62 1 70 3 39 9
-50 9 -58 20 -16 21 26 0 92 16 116 28 1 1 0 -5 -3 -13z m302 -4 c1 -7 0 -8
-3 -2 -8 17 -19 11 -31 -15 -12 -27 -4 -33 17 -12 11 10 13 9 7 -1 -12 -20
-70 -40 -152 -51 -92 -13 -117 -14 -110 -2 3 4 33 11 66 14 94 10 112 29 20
21 -98 -8 -84 13 19 27 39 6 88 16 108 24 42 15 56 14 59 -3z m-1969 -8 c50
-8 47 -23 -5 -26 -20 -1 1 -4 48 -8 78 -5 83 -6 57 -18 -63 -27 -237 -6 -237
29 0 8 6 6 18 -4 23 -21 39 -22 22 -2 -16 19 8 47 35 40 11 -3 39 -8 62 -11z
m-397 -136 c0 -66 -4 -108 -10 -108 -6 0 -10 47 -10 123 0 82 3 117 10 107 5
-8 10 -63 10 -122z m2390 -489 c-15 -137 -55 -302 -90 -377 -27 -58 -115 -192
-125 -192 -2 0 5 21 15 46 32 73 86 260 109 374 34 171 50 303 61 520 6 113
14 216 18 230 12 49 24 -500 12 -601z m-2536 595 c21 -8 23 -94 2 -94 -11 0
-13 7 -7 28 8 27 7 28 -25 24 -28 -3 -34 -8 -34 -28 0 -17 -6 -24 -20 -24 -15
0 -20 7 -20 25 0 23 -4 25 -45 25 -41 0 -45 -2 -45 -25 0 -14 -4 -25 -10 -25
-5 0 -10 23 -10 50 l0 50 99 0 c55 0 106 -3 115 -6z m662 -43 c-3 -5 -28 -14
-56 -21 -64 -15 -65 -29 -2 -19 63 11 72 11 72 0 0 -15 -91 -41 -144 -41 -33
0 -46 3 -37 9 11 7 10 11 -5 19 -18 10 -18 11 1 19 18 7 17 8 -10 14 -20 4 -4
7 50 9 44 1 91 6 105 10 14 4 26 8 28 9 2 1 1 -3 -2 -8z m1474 -12 c50 -1 65
-4 45 -8 -21 -4 -26 -9 -17 -15 10 -6 10 -11 1 -22 -18 -22 8 -17 31 6 11 11
20 16 20 11 0 -22 -46 -41 -97 -41 -53 0 -133 25 -133 41 0 11 9 10 73 0 65
-11 59 3 -8 18 -30 7 -55 16 -55 21 0 5 15 4 32 -1 18 -5 67 -10 108 -10z
m-1427 -39 c-6 -7 -23 23 -23 40 0 8 6 4 13 -10 8 -14 12 -27 10 -30z m-469 1
c-5 -6 -34 20 -34 30 0 5 8 1 18 -8 10 -10 17 -20 16 -22z m175 23 c2 -2 -19
-4 -47 -4 -59 0 -72 -19 -14 -21 20 -1 48 -5 62 -9 24 -8 24 -8 -6 -9 -17 -1
-59 2 -93 5 -55 6 -61 9 -61 30 0 22 2 22 78 17 42 -3 79 -7 81 -9z m2009 9
c-22 -5 -24 -23 -3 -23 7 0 19 8 24 18 6 9 11 12 11 6 0 -21 -25 -33 -90 -43
-79 -13 -169 -14 -130 -1 14 4 42 8 62 9 56 2 57 21 1 23 l-48 1 60 7 c71 8
138 10 113 3z m455 -23 c4 -17 -1 -19 -57 -22 -60 -3 -61 -3 -61 -32 l0 -30
63 3 c57 2 62 1 62 -18 0 -12 -1 -21 -2 -22 -2 0 -56 -4 -121 -7 -117 -7 -117
-7 -117 16 0 19 5 22 35 22 32 0 35 2 35 30 0 28 -2 30 -40 30 -33 0 -40 3
-40 19 0 24 19 27 146 30 83 1 92 -1 97 -19z m-2412 -17 c13 -16 12 -17 -3 -4
-17 13 -22 21 -14 21 2 0 10 -8 17 -17z m305 -12 c-10 -16 -127 -91 -143 -91
-8 0 -11 5 -8 10 3 6 -3 10 -14 10 -12 0 -21 7 -21 15 0 17 -9 19 -28 7 -10
-7 -8 -12 5 -24 10 -8 25 -18 33 -21 12 -4 11 -6 -2 -6 -18 -1 -58 32 -58 47
0 4 30 17 68 30 108 37 111 38 77 8 l-30 -27 40 16 c22 9 49 22 60 29 21 15
31 13 21 -3z m1214 -31 c8 0 2 9 -15 20 -40 27 -21 25 61 -5 38 -14 76 -28 84
-31 12 -4 9 -11 -13 -30 -15 -13 -33 -24 -40 -24 -7 0 4 10 23 21 32 20 33 23
15 30 -30 11 -35 10 -29 -6 5 -11 -1 -15 -22 -15 -23 0 -26 -2 -14 -10 11 -7
11 -10 2 -10 -32 0 -152 79 -152 100 0 5 19 -2 43 -15 23 -14 49 -25 57 -25z
m-1522 14 c66 -8 50 -21 -40 -30 l-83 -9 85 -3 c47 -1 92 -5 100 -8 27 -10 -9
-22 -86 -29 -85 -8 -154 1 -154 20 0 7 -6 18 -14 25 -8 6 -12 17 -10 25 3 7
-2 15 -13 17 -26 5 164 -2 215 -8z m1971 7 c17 -11 0 -46 -32 -62 -18 -10 -17
-7 6 15 28 26 29 46 1 46 -8 0 -14 -6 -14 -13 0 -7 -6 -25 -12 -39 -11 -22
-22 -28 -61 -33 -45 -7 -139 0 -180 11 -40 12 0 24 86 25 79 1 86 3 47 10 -25
4 -65 8 -89 8 -36 1 -43 4 -33 14 8 7 57 14 130 18 64 3 122 6 127 7 6 1 16
-2 24 -7z m-2177 -55 c12 -9 18 -16 13 -16 -15 0 -55 43 -54 59 0 11 3 9 9 -5
5 -12 19 -29 32 -38z m497 -2 c-41 -42 -32 -44 15 -3 39 34 70 31 39 -3 -38
-43 -127 -99 -108 -68 3 6 -4 10 -15 10 -16 0 -20 4 -16 15 4 13 2 14 -14 5
-22 -12 -26 -25 -10 -33 6 -3 5 -4 -2 -3 -24 5 -13 30 20 51 18 11 52 34 75
51 51 39 61 25 16 -22z m1141 42 c6 -8 35 -29 63 -47 64 -40 82 -60 64 -71 -6
-4 -16 -8 -22 -8 -5 0 -3 5 5 10 13 8 12 12 -4 27 -18 17 -18 17 -13 1 5 -14
1 -18 -16 -18 -21 -1 -22 -1 -3 -15 27 -21 12 -19 -32 4 -44 23 -108 86 -94
94 5 4 24 -7 43 -23 49 -42 60 -37 16 8 -20 21 -37 41 -37 45 0 12 17 8 30 -7z
m-1050 -51 c-44 -64 -32 -67 18 -5 30 37 41 46 46 34 12 -30 -53 -123 -105
-149 -31 -17 -52 -20 -29 -5 12 8 9 10 -12 10 -15 0 -30 5 -33 10 -4 6 -12 8
-18 5 -7 -3 2 4 18 17 17 12 55 48 85 79 30 31 57 55 58 53 2 -1 -10 -23 -28
-49z m1089 -86 c25 -16 24 -50 -1 -48 -10 0 -10 2 0 6 14 5 17 33 3 33 -6 0
-13 -4 -16 -10 -3 -5 -16 -10 -28 -10 -18 0 -19 -2 -7 -11 11 -8 9 -9 -10 -4
-32 9 -91 66 -119 115 -33 59 -7 61 46 4 47 -52 47 -46 0 26 -30 45 -30 44 39
-20 38 -36 80 -72 93 -81z m-974 -4 c-28 -58 -62 -85 -110 -85 -42 0 -41 26 2
73 21 23 48 57 58 75 28 48 37 39 14 -14 -11 -26 -18 -49 -15 -51 5 -5 65 100
68 118 1 8 3 -3 5 -23 3 -25 -4 -54 -22 -93z m745 66 c16 -33 34 -62 40 -66
15 -9 12 1 -10 45 -23 44 -24 50 -11 50 5 0 13 -10 17 -22 3 -12 29 -46 56
-75 59 -61 59 -84 1 -82 l-38 2 34 6 c19 3 37 12 39 20 4 10 0 12 -14 6 -11
-4 -26 -8 -34 -9 -8 0 -18 -5 -22 -11 -10 -13 -43 20 -64 63 -15 32 -36 132
-27 132 1 0 16 -27 33 -59z m-1712 33 c18 -3 22 -11 22 -40 0 -41 -22 -89 -45
-98 -57 -21 -105 8 -110 66 -2 31 -5 33 -44 36 -36 3 -41 6 -41 27 0 23 0 23
98 19 53 -3 107 -7 120 -10z m548 -31 c-4 -5 -24 -13 -44 -20 -36 -12 -35 -12
23 -8 l60 5 -50 -19 c-72 -26 -135 -33 -164 -18 -25 13 -30 29 -12 35 6 2 8
-3 5 -12 -3 -9 -2 -16 2 -16 5 0 20 -3 34 -7 l25 -6 -22 22 c-13 12 -23 23
-23 25 0 1 21 3 48 5 39 2 63 6 121 20 2 1 1 -2 -3 -6z m1715 -15 c31 -2 29
-20 -4 -36 -19 -9 -19 -11 -4 -11 25 -1 59 18 52 30 -4 5 -1 9 4 9 19 0 12
-19 -13 -35 -20 -13 -34 -15 -78 -6 -29 5 -71 17 -93 25 l-40 16 60 -5 60 -4
-40 14 -40 15 55 -6 c30 -2 67 -6 81 -6z m-2121 -33 c-7 -9 -15 -13 -19 -10
-3 3 1 10 9 15 21 14 24 12 10 -5z m479 1 c9 -11 2 -17 -35 -31 -61 -23 -49
-31 19 -11 64 19 87 20 87 5 0 -13 -105 -60 -150 -66 -25 -3 -31 -2 -21 5 11
8 9 11 -10 14 -18 2 -24 9 -23 26 1 27 -7 28 -29 4 -19 -21 -7 -41 28 -43 16
-1 16 -2 3 -6 -22 -6 -58 14 -58 32 0 17 26 32 105 61 76 27 71 26 84 10z
m1511 -11 c40 -14 82 -32 92 -42 17 -15 17 -17 2 -35 -10 -10 -27 -17 -38 -17
-20 1 -20 2 -1 6 47 12 52 33 13 54 -18 9 -19 8 -13 -10 5 -18 1 -22 -26 -28
-28 -5 -30 -7 -14 -14 19 -7 19 -8 -2 -8 -30 -1 -127 36 -155 59 l-23 19 26 1
c14 0 46 -7 72 -16 62 -21 83 -13 24 10 -32 12 -44 22 -40 32 6 17 -4 19 83
-11z m-420 -68 c0 -5 -4 -5 -10 -2 -5 3 -10 -1 -10 -10 0 -9 -4 -14 -8 -11 -5
3 -9 26 -10 53 l-2 48 20 -35 c10 -19 19 -39 20 -43z m-721 16 c0 -34 -3 -42
-8 -28 -8 19 -8 19 -19 -2 -16 -30 -15 -33 11 -34 18 -1 19 -2 3 -6 -33 -9
-37 11 -15 65 12 29 23 52 25 52 2 0 4 -21 3 -47z m1890 23 c7 -8 14 -29 17
-48 9 -53 -17 -69 -120 -75 -97 -7 -112 0 -122 53 -8 41 16 74 53 74 18 0 23
-5 23 -25 0 -19 -5 -25 -21 -25 -14 0 -19 -5 -17 -17 3 -15 13 -18 68 -15 36
2 73 6 83 9 26 7 17 39 -11 36 -17 -2 -22 2 -22 22 0 21 5 25 29 25 16 0 34
-6 40 -14z m-2149 -16 c8 -5 11 -10 5 -10 -5 0 -17 5 -25 10 -8 5 -10 10 -5
10 6 0 17 -5 25 -10z m-586 -25 c3 -8 0 -15 -7 -15 -7 0 -4 -5 7 -11 14 -9 20
-8 26 1 4 7 13 9 19 6 6 -4 9 -12 5 -17 -3 -5 -9 -7 -14 -4 -5 3 -12 0 -15 -6
-4 -5 -13 -8 -21 -5 -8 3 -14 -1 -14 -9 0 -8 -4 -15 -10 -15 -13 0 -13 13 1
27 8 8 8 17 0 31 -10 19 -6 32 10 32 4 0 9 -7 13 -15z m546 -5 c-14 -11 -33
-22 -42 -26 -10 -3 -18 -10 -18 -15 0 -5 22 2 50 16 27 14 59 25 71 25 18 0
13 -7 -25 -36 -65 -50 -130 -77 -166 -69 -41 9 -54 28 -32 48 24 21 142 75
167 76 18 0 18 -1 -5 -19z m1360 -10 c108 -44 119 -57 75 -86 -22 -15 -32 -15
-68 -4 -23 7 -69 31 -101 54 -50 35 -56 42 -37 44 12 2 33 -4 47 -12 13 -9 36
-21 52 -26 l27 -10 -22 17 c-12 10 -33 26 -45 35 -35 26 -9 21 72 -12z m-2088
-39 c46 -16 53 -21 50 -42 -2 -13 -7 -27 -10 -30 -4 -3 -47 -14 -97 -23 -49
-9 -102 -19 -117 -22 -25 -5 -28 -3 -28 20 0 18 5 26 18 26 44 0 57 54 17 72
-16 7 -25 19 -25 34 l0 22 69 -19 c39 -11 94 -28 123 -38z m273 40 c3 -5 1
-12 -5 -16 -5 -3 -10 1 -10 9 0 18 6 21 15 7z m533 -53 c-54 -47 -36 -50 24
-4 27 21 49 31 57 27 13 -9 -56 -76 -114 -112 -36 -23 -88 -25 -105 -4 -16 20
-14 22 88 96 86 62 121 60 50 -3z m1258 -55 c28 -22 29 -23 10 -38 -29 -23
-67 -18 -117 14 -54 35 -114 97 -102 104 5 3 31 -10 58 -29 65 -46 77 -43 21
5 -30 26 -41 42 -34 49 9 9 47 -15 164 -105z m-302 75 c-3 -4 -11 -8 -17 -7
-9 0 -9 2 0 5 7 3 9 13 6 22 -4 14 -3 14 5 2 6 -8 8 -18 6 -22z m-849 -43
c-54 -76 -46 -87 12 -15 22 27 43 47 46 43 9 -8 -26 -72 -60 -110 -24 -27 -33
-31 -61 -26 -28 5 -32 8 -26 27 7 21 6 21 -15 2 -24 -21 -27 -42 -8 -49 7 -4
8 -6 1 -6 -6 -1 -17 5 -23 13 -10 11 3 29 65 90 67 67 100 95 112 96 2 0 -17
-29 -43 -65z m971 -17 c71 -68 100 -108 80 -108 -2 0 -13 -3 -23 -6 -16 -6
-16 -5 2 9 20 16 20 16 -4 39 l-23 23 7 -22 c5 -20 3 -23 -22 -23 l-28 0 25
-21 25 -20 -30 15 c-35 17 -75 57 -104 106 -37 62 -22 67 29 10 51 -58 67 -62
26 -7 -38 52 -59 87 -51 87 4 0 45 -37 91 -82z m-1644 34 c-7 -2 -12 -12 -12
-23 0 -10 -5 -19 -11 -19 -5 0 -8 4 -5 9 4 5 -3 7 -14 4 -11 -3 -20 -1 -20 5
0 10 29 26 43 24 4 -1 7 3 7 9 0 5 5 7 12 3 9 -6 9 -9 0 -12z m-98 -145 c19
-325 124 -550 338 -721 90 -72 199 -136 309 -181 82 -34 85 -45 11 -45 -45 0
-201 76 -299 146 -97 68 -210 188 -267 282 -92 155 -146 366 -146 576 l0 99
23 -22 c21 -19 25 -34 31 -134z m863 131 c-22 -61 -18 -78 7 -30 l15 27 1 -41
c0 -22 -7 -49 -15 -60 -22 -29 -17 -43 5 -15 11 13 20 19 20 14 0 -5 -6 -15
-12 -21 -10 -10 -10 -15 2 -23 12 -9 11 -9 -5 -3 -11 4 -28 7 -37 8 -13 0 -14
3 -6 14 9 11 7 12 -14 7 -41 -10 -43 26 -5 85 29 45 56 68 44 38z m793 -65
c47 -73 49 -79 31 -87 -52 -23 -111 32 -118 112 l-4 47 21 -38 c24 -43 36 -45
20 -3 -11 29 -13 46 -6 46 3 0 28 -35 56 -77z m-1590 -2 c5 -20 21 -99 34
-176 26 -145 69 -308 112 -421 13 -36 19 -62 13 -59 -20 13 -108 155 -128 209
-31 84 -72 292 -78 398 -6 95 -5 97 16 91 14 -3 24 -18 31 -42z m113 -88 l56
-93 -30 -15 -30 -16 -29 65 c-53 116 -68 164 -57 175 12 12 13 11 90 -116z
m2617 83 c0 -18 -6 -25 -22 -28 -18 -2 -23 -10 -23 -33 0 -23 5 -31 23 -33 16
-3 22 -10 22 -28 0 -13 -6 -24 -13 -24 -6 0 -59 14 -117 30 -58 17 -106 30
-107 30 -2 0 -3 13 -3 28 0 28 2 29 108 54 134 33 132 33 132 4z m-2020 -51
c-10 -12 -10 -16 1 -19 42 -13 44 -14 24 -15 -35 -1 -49 13 -35 39 6 12 14 19
17 16 3 -3 0 -12 -7 -21z m1290 6 c-15 -29 -13 -34 15 -27 23 6 25 3 25 -24 0
-27 -2 -30 -25 -24 -28 7 -30 2 -15 -27 10 -17 7 -19 -25 -19 -33 0 -35 2 -29
25 6 24 4 25 -20 19 -24 -6 -26 -4 -26 26 0 30 1 31 31 25 29 -6 30 -6 20 13
-16 30 -14 32 24 32 32 0 35 -2 25 -19z m-476 -32 c-3 -5 -13 -9 -22 -8 -14 0
-14 2 2 8 14 5 16 10 8 15 -7 4 -12 13 -12 19 0 7 7 3 15 -7 8 -10 12 -23 9
-27z m-864 26 c0 -2 -9 -9 -20 -15 -12 -6 -20 -7 -20 -1 0 5 8 12 18 14 9 3
18 5 20 6 1 0 2 -1 2 -4z m-918 -49 c109 0 108 2 108 -87 l0 -47 -52 -6 c-184
-20 -185 -20 -191 5 -3 13 -5 24 -3 26 1 2 51 6 109 10 105 6 107 7 107 30 0
22 -3 24 -27 19 -51 -11 -172 -11 -181 -1 -5 6 -13 27 -16 47 -5 30 -4 37 11
40 10 2 22 -5 28 -17 10 -18 20 -20 107 -19z m913 8 c-29 -42 -31 -74 -10
-134 l15 -42 -33 19 c-17 11 -38 32 -45 47 -16 33 -9 88 15 107 14 12 15 11 7
-11 -11 -34 -9 -79 5 -93 8 -8 11 1 11 35 0 35 6 54 26 77 35 42 39 39 9 -5z
m1035 -6 c11 -18 20 -51 20 -73 1 -34 2 -37 11 -21 6 10 9 38 6 62 -2 24 -3
44 0 44 11 0 33 -73 27 -95 -6 -24 -72 -91 -80 -82 -3 2 0 17 6 33 18 48 15
103 -9 135 -12 16 -17 29 -11 29 6 0 19 -15 30 -32z m-970 -68 c0 -62 -2 -70
-19 -70 -34 0 -51 28 -50 78 1 45 1 46 9 14 4 -19 13 -39 20 -45 9 -9 10 -6 5
16 -9 36 2 77 20 77 12 0 15 -15 15 -70z m43 26 c-3 -45 14 -39 23 9 9 50 24
43 24 -10 0 -35 -6 -52 -25 -70 -13 -14 -28 -25 -33 -25 -14 0 -23 57 -16 101
8 50 30 45 27 -5z m777 16 c0 -16 6 -37 14 -47 13 -18 14 -15 9 28 -5 39 -3
47 11 47 13 0 16 -12 16 -70 0 -77 -8 -85 -47 -48 -18 17 -23 32 -23 70 0 26
5 48 10 48 6 0 10 -13 10 -28z m98 -22 c-1 -28 0 -50 4 -50 10 0 23 50 20 75
-2 17 -1 17 7 5 28 -40 0 -120 -42 -120 -21 0 -22 4 -19 70 3 54 7 70 19 70
12 0 14 -10 11 -50z m-790 -56 c-12 -25 -58 -53 -58 -35 0 4 14 23 30 41 17
18 31 43 31 54 2 15 3 13 6 -6 2 -15 -2 -40 -9 -54z m645 21 c7 -5 20 -22 30
-37 16 -26 16 -27 0 -21 -10 3 -24 10 -30 16 -17 12 -34 77 -25 91 4 6 8 0 10
-14 2 -14 9 -29 15 -35z m-595 -25 c-5 -17 -18 -35 -28 -40 -38 -21 -40 -7 -5
34 14 16 25 33 25 38 0 5 4 7 9 3 6 -3 6 -17 -1 -35z m565 -8 c17 -23 24 -38
17 -40 -15 -5 -46 26 -55 56 -10 33 6 26 38 -16z m1167 12 c52 -8 97 -17 99
-20 2 -2 0 -12 -5 -22 -9 -18 -13 -18 -111 -2 -109 17 -113 16 -113 -29 0 -14
15 -20 83 -30 118 -18 127 -21 127 -42 0 -24 -19 -24 -152 -2 l-100 16 6 56
c11 93 15 101 44 96 15 -3 70 -12 122 -21z m-2434 -36 c-17 -12 -26 -9 -20 6
3 8 0 17 -6 21 -9 6 -9 10 1 16 17 10 41 -32 25 -43z m729 20 c-5 -22 -4 -30
3 -23 6 6 12 18 14 28 5 28 23 15 21 -16 -1 -36 -20 -57 -49 -57 -33 0 -36 11
-13 58 25 50 33 53 24 10z m476 -28 c5 0 6 15 4 33 -5 32 -5 32 7 6 7 -14 19
-34 27 -43 13 -15 13 -19 0 -27 -35 -22 -63 -5 -79 49 -11 41 11 50 24 11 5
-16 13 -29 17 -29z m609 -9 c0 -61 3 -72 22 -85 12 -9 17 -16 10 -16 -6 0 -12
-9 -12 -20 0 -15 -6 -20 -27 -19 -16 0 -22 3 -15 6 16 6 15 28 -2 42 -20 17
-52 -15 -35 -35 9 -11 6 -14 -15 -14 -16 0 -25 4 -21 10 4 6 2 17 -4 24 -9 10
-8 15 4 20 12 4 15 22 15 81 l0 75 40 0 40 0 0 -69z m-996 32 c-3 -16 -10 -41
-15 -57 -11 -36 -11 -39 0 -31 5 3 17 28 26 55 18 54 50 73 39 23 -10 -46 -68
-157 -84 -161 -10 -2 -10 0 3 8 24 15 22 34 -2 20 -11 -5 -28 -7 -38 -3 -16 6
-16 4 2 -17 l20 -23 -23 12 c-13 7 -21 18 -18 24 3 7 20 49 38 94 18 45 39 83
46 83 8 0 10 -9 6 -27z m330 -5 c4 -18 19 -59 35 -91 25 -51 26 -59 12 -70
-14 -11 -15 -10 -1 7 14 18 13 19 -6 14 -12 -3 -29 -1 -38 4 -19 11 -21 -2 -3
-22 6 -8 2 -6 -10 3 -23 20 -56 91 -68 145 -5 24 -3 32 7 32 9 0 22 -23 32
-55 9 -30 21 -55 26 -55 4 0 2 21 -6 47 -18 58 -18 73 0 73 8 0 17 -14 20 -32z
m546 -21 l0 -53 -52 -22 c-28 -12 -53 -20 -55 -18 -12 12 16 65 53 103 24 24
46 43 49 43 3 0 5 -24 5 -53z m30 -12 l0 -64 -42 -11 c-24 -7 -58 -21 -77 -32
-25 -14 -31 -15 -22 -4 7 9 40 25 72 37 l59 22 0 58 c0 33 2 59 5 59 3 0 5
-29 5 -65z m159 -67 c18 -5 31 -11 29 -13 -2 -3 -21 0 -41 6 l-37 10 2 67 1
67 6 -64 c6 -63 7 -65 40 -73z m55 62 c13 -19 27 -46 31 -59 6 -21 5 -23 -11
-16 -11 4 -38 15 -61 23 l-43 14 0 55 0 54 30 -18 c17 -10 41 -33 54 -53z
m-1999 41 c-3 -5 -1 -12 5 -16 15 -9 12 -22 -6 -29 -8 -3 -13 -2 -9 3 3 5 -2
16 -10 24 -11 12 -12 17 -2 20 20 9 29 8 22 -2z m941 -64 c-11 -36 -11 -46 -2
-38 7 6 18 29 25 51 6 22 16 40 20 40 18 0 18 -29 0 -81 -10 -30 -18 -62 -19
-71 0 -17 -37 -44 -47 -35 -2 3 5 8 16 12 34 10 24 25 -11 18 -41 -7 -46 -12
-28 -23 8 -6 10 -10 5 -10 -6 0 -16 5 -22 11 -9 9 -6 21 12 47 13 19 32 61 42
93 10 32 19 53 21 46 1 -7 -4 -34 -12 -60z m223 -75 c22 -42 21 -62 -2 -62 -7
0 -6 4 3 10 19 12 13 16 -33 23 -33 5 -37 4 -27 -8 7 -8 20 -15 29 -16 11 0
12 -2 3 -6 -19 -7 -52 26 -52 53 0 13 -7 42 -16 64 -16 40 -14 70 6 70 5 0 10
-6 10 -12 0 -7 9 -31 20 -53 17 -34 19 -35 15 -11 -16 82 -16 90 3 41 10 -27
29 -69 41 -93z m-1018 26 c21 -43 35 -78 30 -78 -12 0 -100 167 -93 175 7 7
16 -6 63 -97z m471 81 c66 -3 67 -4 61 -29 -2 -14 4 -49 16 -79 22 -58 19 -81
-10 -81 -41 0 -134 -41 -251 -112 -67 -40 -123 -68 -125 -63 -2 6 -18 37 -36
69 -23 42 -41 62 -62 70 -40 15 -43 46 -4 46 21 0 42 -13 80 -51 47 -47 54
-50 86 -44 20 3 43 10 52 15 30 15 89 40 97 40 18 0 73 52 68 64 -3 8 -1 17 5
21 24 14 11 66 -24 102 -33 34 -44 50 -27 39 4 -2 38 -6 74 -7z m875 -27 c-40
-42 -51 -81 -30 -104 21 -23 71 -50 128 -68 25 -8 60 -33 92 -66 59 -62 84
-71 47 -17 -28 42 -27 57 6 61 17 3 21 0 17 -11 -6 -16 27 -77 43 -77 14 0 31
47 28 78 -2 21 1 27 17 27 17 0 19 -6 17 -32 -4 -40 5 -73 21 -73 6 0 21 10
34 22 23 22 33 12 11 -10 -7 -7 -8 -12 -2 -12 6 0 16 12 22 26 7 14 8 23 3 20
-5 -3 -8 6 -8 19 0 25 12 31 33 17 8 -5 1 -26 -20 -67 -32 -59 -33 -60 -87
-68 -102 -16 -199 12 -199 57 0 30 -29 55 -127 109 -112 62 -117 63 -141 32
-43 -55 -61 -22 -33 62 11 33 18 68 15 79 -5 17 1 20 58 22 34 2 65 5 67 8 2
2 7 2 9 -1 3 -3 -6 -18 -21 -33z m-1517 23 c0 -7 -30 -13 -34 -7 -3 4 4 9 15
9 10 1 19 0 19 -2z m131 -76 c22 -45 38 -84 35 -87 -3 -3 -8 -3 -10 -1 -9 10
-76 150 -76 159 0 23 12 6 51 -71z m7 -106 c-2 -9 -24 25 -49 75 -25 51 -44
94 -41 97 9 8 94 -154 90 -172z m-374 140 c8 -21 1 -27 -51 -42 -42 -12 -43
-13 -43 -56 0 -34 -5 -47 -22 -59 -32 -23 -83 -20 -107 5 -15 17 -45 99 -38
105 2 2 240 63 248 64 4 0 10 -8 13 -17z m316 -83 c27 -51 47 -97 43 -103 -6
-11 -102 168 -102 192 -1 22 6 11 59 -89z m974 -27 c3 -4 7 9 7 28 1 19 5 48
8 64 7 28 8 26 21 -29 13 -57 13 -59 -10 -76 -19 -14 -29 -16 -47 -7 -26 12
-29 40 -11 102 l12 40 7 -58 c3 -32 9 -61 13 -64z m706 52 c-9 -11 -10 -18 -1
-29 9 -11 7 -15 -7 -18 -12 -3 -24 2 -31 14 -7 11 -11 21 -9 22 5 3 53 25 57
25 2 1 -2 -6 -9 -14z m284 0 c11 -8 16 -15 10 -15 -5 0 -18 7 -28 15 -11 8
-16 15 -10 15 5 0 18 -7 28 -15z m-174 -5 c0 -5 -4 -10 -10 -10 -5 0 -10 5
-10 10 0 6 5 10 10 10 6 0 10 -4 10 -10z m127 2 c7 -4 10 -17 7 -29 -8 -29
-39 -19 -39 13 0 24 10 30 32 16z m-207 -12 c0 -5 -4 -10 -10 -10 -5 0 -10 5
-10 10 0 6 5 10 10 10 6 0 10 -4 10 -10z m161 -3 c-1 -12 -15 -9 -19 4 -3 6 1
10 8 8 6 -3 11 -8 11 -12z m-241 -28 c0 -5 -4 -9 -10 -9 -5 0 -10 7 -10 16 0
8 5 12 10 9 6 -3 10 -10 10 -16z m327 -5 c-9 -9 -28 6 -21 18 4 6 10 6 17 -1
6 -6 8 -13 4 -17z m428 -10 c70 -28 85 -45 85 -93 0 -39 -31 -71 -68 -71 -45
0 -151 40 -167 63 -21 31 -19 83 5 107 27 27 67 25 145 -6z m-1870 -3 c-3 -6
-11 -11 -17 -11 -6 0 -6 6 2 15 14 17 26 13 15 -4z m1085 4 c7 -9 8 -15 2 -15
-5 0 -12 7 -16 15 -3 8 -4 15 -2 15 2 0 9 -7 16 -15z m160 5 c0 -5 -17 -9 -37
-9 l-38 2 35 7 c19 4 36 8 38 9 1 0 2 -3 2 -9z m91 -8 c-18 -2 -37 0 -42 5 -5
5 11 6 34 3 41 -4 41 -5 8 -8z m120 -5 c-10 -9 -11 -8 -5 6 3 10 9 15 12 12 3
-3 0 -11 -7 -18z m-1237 -25 c-30 -41 -36 -52 -27 -52 4 0 23 21 42 46 19 24
36 43 38 40 9 -8 -40 -92 -75 -128 -39 -41 -77 -50 -86 -20 -4 13 12 37 56 83
64 66 88 81 52 31z m484 -34 c42 -45 45 -32 6 22 -20 28 -32 50 -27 50 4 0 18
-15 30 -34 12 -19 40 -47 62 -62 22 -16 41 -34 41 -39 0 -26 -51 -48 -64 -27
-2 4 7 8 21 7 14 0 28 5 30 12 3 8 -6 9 -31 3 -31 -7 -38 -4 -64 24 -31 33
-62 86 -62 108 0 7 7 1 17 -12 9 -14 27 -37 41 -52z m155 52 c-3 -11 -9 -20
-14 -20 -10 0 -12 24 -2 33 13 13 21 7 16 -13z m413 -7 c-10 -10 -19 5 -10 18
6 11 8 11 12 0 2 -7 1 -15 -2 -18z m-972 -5 c-3 -13 -17 -44 -30 -70 -35 -70
-12 -59 25 12 18 33 36 60 41 60 25 0 -61 -190 -90 -198 -8 -3 -12 -1 -8 3 5
5 -2 13 -15 20 -12 6 -21 17 -19 24 1 7 -3 11 -10 9 -23 -8 -19 -27 9 -42 15
-8 24 -15 20 -16 -9 0 -67 29 -67 33 0 2 24 28 54 59 29 30 60 72 67 92 14 39
35 51 23 14z m79 -15 c-3 -21 -14 -63 -24 -93 -25 -75 3 -38 33 43 27 74 45
60 19 -14 -10 -30 -22 -74 -26 -97 -8 -49 -35 -73 -80 -71 -29 1 -29 1 5 8 41
8 60 18 60 32 0 6 -7 6 -19 -1 -11 -5 -33 -10 -50 -10 -17 0 -31 -5 -31 -11 0
-5 -4 -7 -10 -4 -5 3 5 25 24 49 18 23 43 72 56 107 39 106 53 127 43 62z
m268 -9 c13 -25 44 -65 70 -89 l48 -45 -26 -20 c-14 -11 -31 -20 -37 -20 -6 1
2 8 17 16 27 15 32 34 10 41 -6 2 -13 -5 -16 -17 -3 -12 -13 -20 -27 -20 -14
0 -19 -4 -14 -12 5 -8 1 -8 -10 1 -30 25 -96 174 -83 187 2 3 22 -25 43 -61
21 -36 42 -65 47 -65 5 0 7 3 5 8 -16 31 -46 101 -52 120 -12 37 1 25 25 -24z
m253 38 c2 -4 1 -14 -4 -21 -10 -17 -31 -5 -23 14 6 16 19 20 27 7z m-1304
-17 c0 -8 -4 -15 -9 -15 -13 0 -22 16 -14 24 11 11 23 6 23 -9z m370 5 c0 -5
-7 -10 -15 -10 -8 0 -15 5 -15 10 0 6 7 10 15 10 8 0 15 -4 15 -10z m493 -20
c3 0 13 7 21 16 9 8 16 11 16 6 0 -5 -8 -16 -18 -25 -17 -16 -20 -15 -43 10
-17 20 -18 23 -3 10 11 -9 23 -17 27 -17z m107 -12 c14 -48 53 -130 81 -170
22 -30 23 -38 8 -38 -5 0 -8 4 -5 9 3 5 -11 11 -32 13 -20 3 -46 9 -57 13 -20
8 -20 8 -1 -13 11 -13 32 -23 50 -23 l31 -2 -29 -4 c-34 -5 -76 29 -76 63 0
12 -9 52 -21 89 -13 42 -17 71 -11 77 6 6 11 -2 15 -21 8 -39 47 -121 58 -121
4 0 0 24 -10 53 -23 68 -33 117 -22 117 4 0 14 -19 21 -42z m550 32 c-8 -5
-19 -10 -25 -10 -5 0 -3 5 5 10 8 5 20 10 25 10 6 0 3 -5 -5 -10z m35 0 c3 -5
1 -10 -4 -10 -6 0 -11 5 -11 10 0 6 2 10 4 10 3 0 8 -4 11 -10z m87 -3 c-7 -7
-9 -29 -6 -49 4 -20 2 -38 -4 -42 -14 -8 -34 28 -26 48 3 9 -3 19 -18 27 -22
12 -22 12 -3 20 11 4 31 8 44 8 18 1 21 -2 13 -12z m116 7 c21 -6 22 -8 6 -25
-9 -10 -13 -22 -10 -27 6 -11 -21 -52 -35 -52 -6 0 -9 17 -8 40 2 21 0 42 -4
46 -21 22 4 30 51 18z m49 -16 c-3 -8 -6 -5 -6 6 -1 11 2 17 5 13 3 -3 4 -12
1 -19z m44 5 c13 -16 12 -17 -3 -4 -17 13 -22 21 -14 21 2 0 10 -8 17 -17z
m-515 -9 c-3 -9 -6 -18 -6 -20 0 -3 -4 -3 -10 1 -11 7 -2 35 12 35 6 0 7 -7 4
-16z m-1006 -4 c0 -5 -7 -10 -15 -10 -8 0 -15 5 -15 10 0 6 7 10 15 10 8 0 15
-4 15 -10z m1195 -10 c-4 -12 -3 -27 2 -33 4 -7 0 -4 -10 6 -13 15 -15 23 -6
33 16 20 21 17 14 -6z m-1895 -10 c9 -16 6 -22 -22 -36 -18 -9 -34 -18 -36
-19 -3 -3 15 -43 23 -53 2 -2 18 4 35 13 30 16 34 16 49 0 15 -15 15 -17 -4
-31 -25 -19 -216 -117 -219 -112 -1 1 -7 11 -15 20 -11 15 -7 20 36 42 26 13
56 30 65 38 16 12 16 14 0 36 l-17 23 -59 -32 c-56 -30 -60 -31 -72 -14 -7 10
-11 22 -8 27 6 9 213 117 226 117 4 1 12 -8 18 -19z m660 11 c0 -14 -18 -23
-31 -15 -8 4 -7 9 2 15 18 11 29 11 29 0z m1090 5 c0 -15 -14 -35 -21 -30 -15
9 -10 34 6 34 8 0 15 -2 15 -4z m465 -5 c3 -5 1 -12 -4 -15 -5 -3 -11 1 -15 9
-6 16 9 21 19 6z m-1855 -35 c0 -17 -7 -26 -27 -30 -45 -12 -54 26 -9 44 32
13 36 12 36 -14z m254 15 c3 -5 0 -11 -8 -14 -15 -6 -26 1 -26 15 0 11 27 10
34 -1z m1166 -11 c0 -11 -4 -20 -9 -20 -14 0 -23 18 -16 30 10 17 25 11 25
-10z m-1383 -16 c-9 -9 -28 6 -21 18 4 6 10 6 17 -1 6 -6 8 -13 4 -17z m81
-69 c23 -47 38 -85 34 -85 -5 0 -28 37 -53 82 -55 103 -53 99 -37 93 8 -3 33
-44 56 -90z m92 80 c0 -8 -4 -15 -9 -15 -13 0 -22 16 -14 24 11 11 23 6 23 -9z
m648 -53 c1 -37 6 -80 9 -97 7 -29 7 -28 14 15 4 25 8 70 9 100 l2 55 14 -34
c41 -94 38 -187 -9 -238 -20 -22 -21 -22 -40 -6 -30 27 -47 68 -47 111 0 43
32 162 43 162 1 0 3 -30 5 -68z m600 41 c-4 -22 -22 -20 -26 1 -2 10 3 16 13
16 10 0 15 -7 13 -17z m42 -39 c0 -8 -6 -11 -15 -8 -8 4 -15 15 -15 26 0 17 3
18 15 8 8 -7 15 -19 15 -26z m-1484 -8 c2 -24 -28 -42 -48 -30 -17 11 -8 43
15 47 12 2 24 5 27 6 3 0 6 -10 6 -23z m38 -7 c-10 -16 -24 -9 -24 12 0 18 2
19 15 9 8 -7 12 -16 9 -21z m2101 -14 c14 -13 25 -31 25 -40 0 -11 6 -15 18
-10 11 3 30 -3 45 -16 36 -27 38 -90 5 -113 -25 -18 -56 -20 -77 -7 -12 8 -12
12 -2 25 8 9 22 16 33 16 27 0 35 30 13 46 -16 12 -21 11 -36 -2 -14 -12 -22
-13 -38 -4 -24 12 -26 21 -10 37 18 18 2 45 -23 41 -17 -2 -23 -10 -24 -29 -2
-53 -25 -64 -43 -21 -32 76 57 135 114 77z m-2112 -29 c7 -17 -1 -26 -24 -26
-24 0 -35 20 -18 31 20 13 36 11 42 -5z m32 4 c3 -5 1 -10 -4 -10 -6 0 -11 5
-11 10 0 6 2 10 4 10 3 0 8 -4 11 -10z m498 -33 c-3 -7 -22 -31 -41 -54 -46
-58 -24 -55 27 3 22 25 45 44 51 42 14 -4 -65 -113 -109 -151 -39 -32 -60 -34
-92 -8 l-24 20 25 17 c14 9 54 47 90 84 36 37 68 65 73 63 4 -2 4 -10 0 -16z
m690 -63 c85 -83 88 -86 71 -105 -17 -19 -59 -26 -68 -10 -3 4 5 6 17 4 12 -2
31 3 42 11 17 14 18 17 5 26 -20 13 -31 13 -27 -1 1 -7 -11 -16 -28 -20 -27
-8 -33 -6 -58 23 -46 53 -89 119 -83 126 4 3 28 -15 54 -41 62 -61 74 -60 23
1 -34 40 -51 72 -38 72 1 0 42 -39 90 -86z m-1141 22 c-3 -5 -11 2 -18 15 -7
13 -10 28 -7 32 7 11 31 -35 25 -47z m2290 -67 c-47 -137 -98 -262 -154 -372
-295 -589 -812 -1179 -1287 -1469 l-95 -58 -55 31 c-190 107 -389 268 -611
495 -419 428 -730 925 -894 1428 -23 71 -20 70 25 -14 23 -41 56 -95 74 -120
18 -25 51 -88 74 -140 222 -512 710 -1126 1155 -1454 87 -65 216 -146 232
-146 6 0 65 36 130 79 448 298 922 854 1193 1400 37 75 74 152 81 171 8 19 38
70 67 113 29 44 62 101 74 128 13 27 24 47 26 45 2 -1 -14 -54 -35 -117z
m-2327 81 c9 -16 11 -30 6 -30 -5 0 -16 14 -25 30 -8 17 -10 30 -5 30 4 0 15
-13 24 -30z m-33 -9 c22 -39 10 -49 -14 -11 -20 34 -22 40 -10 40 4 0 14 -13
24 -29z m594 -1 c-2 -16 -11 -42 -21 -57 -10 -15 -25 -39 -34 -53 -15 -25 -15
-25 6 -7 12 10 34 36 49 58 15 21 33 39 41 39 18 0 -48 -128 -88 -171 -32 -34
-84 -39 -119 -11 l-23 18 56 53 c31 29 73 77 93 107 21 30 39 54 40 54 2 0 2
-13 0 -30z m517 -52 c30 -40 69 -83 86 -96 17 -12 31 -29 31 -37 0 -29 -76
-47 -109 -26 -10 6 0 8 27 4 27 -4 47 -1 57 7 20 16 19 23 -6 38 -17 11 -20
11 -17 -5 2 -14 -6 -19 -41 -24 -43 -6 -43 -6 -76 45 -34 53 -65 111 -65 121
0 3 6 5 13 5 6 0 30 -25 51 -55 51 -71 66 -71 21 -1 -18 29 -33 63 -32 75 1
11 2 21 3 21 1 0 26 -33 57 -72z m-1389 43 c16 -17 13 -24 -60 -129 l-76 -112
-18 23 c-16 20 -17 24 -3 39 13 14 13 19 -2 42 -20 30 -19 30 -45 14 -16 -10
-23 -9 -40 7 l-21 19 113 58 c62 31 118 57 124 57 6 1 19 -7 28 -18z m411 9
c-9 -15 -125 -72 -137 -68 -6 2 22 20 62 41 78 40 84 42 75 27z m1816 -44
l-21 -22 21 -18 c20 -17 22 -17 44 4 20 18 23 19 35 5 11 -13 10 -19 -5 -35
-18 -20 -18 -21 5 -45 28 -30 38 -31 56 -7 10 14 15 15 25 4 11 -10 7 -19 -23
-48 l-36 -36 -68 62 c-38 35 -77 71 -88 81 -18 17 -18 18 15 57 26 31 37 38
47 30 10 -9 9 -15 -7 -32z m-1245 -42 c-38 -114 -76 -184 -103 -190 -13 -4
-27 -4 -30 0 -4 3 3 6 15 6 11 0 24 5 27 10 4 6 -5 10 -19 10 -16 0 -26 6 -26
15 0 17 -16 20 -25 5 -4 -6 -1 -18 7 -27 12 -15 11 -15 -10 -4 l-23 12 34 39
c18 21 51 70 72 109 22 39 43 71 47 71 9 0 -13 -64 -41 -118 -12 -23 -17 -42
-12 -42 5 0 30 41 56 91 26 50 49 89 51 86 2 -2 -7 -35 -20 -73z m249 19 c29
-64 65 -126 71 -120 2 2 -7 28 -20 58 -31 69 -40 99 -29 99 5 0 20 -24 35 -52
14 -29 44 -78 67 -108 l42 -55 -22 -18 c-38 -31 -70 -19 -101 38 -24 44 -78
187 -78 208 0 19 13 2 35 -50z m-211 -34 c-8 -33 -20 -75 -28 -94 -8 -19 -11
-35 -7 -35 10 0 61 114 61 136 0 8 4 14 9 14 21 0 18 -35 -9 -115 -17 -47 -30
-92 -30 -100 0 -33 -67 -46 -93 -17 -14 16 -12 23 23 96 21 43 47 105 57 136
23 73 35 57 17 -21z m166 56 c0 -23 78 -207 97 -227 17 -19 17 -21 -6 -39 -27
-22 -51 -24 -73 -6 -21 16 -82 203 -73 225 6 15 8 15 16 -3 5 -11 20 -47 34
-79 31 -73 45 -68 17 6 -26 68 -39 154 -23 144 6 -4 11 -13 11 -21z m-805 -11
c-35 -27 -53 -35 -60 -25 -6 11 41 40 65 40 11 0 10 -4 -5 -15z m5 -34 c0 -5
-7 -10 -16 -10 -8 0 -12 5 -9 10 3 6 10 10 16 10 5 0 9 -4 9 -10z m1753 -45
c4 -8 -5 -22 -20 -33 -22 -16 -24 -21 -12 -39 12 -20 14 -20 45 -5 30 14 35
14 59 -2 26 -17 45 -53 45 -83 0 -16 -65 -83 -80 -83 -5 0 -40 45 -79 99 l-70
100 47 30 c54 35 58 36 65 16z m-1981 -33 l37 -28 -66 -85 c-35 -46 -71 -92
-78 -102 -11 -15 -17 -17 -34 -7 l-22 11 20 28 c26 36 18 44 -25 23 -32 -15
-36 -15 -51 0 -15 16 -12 18 33 40 27 12 50 23 52 24 2 1 -2 12 -8 24 -14 26
2 74 29 90 30 17 75 10 113 -18z m940 -117 c3 -4 9 27 13 67 l8 73 23 -69 c24
-70 29 -111 18 -141 -9 -23 -55 -44 -79 -35 -53 20 -59 68 -23 181 l23 73 6
-72 c3 -39 8 -74 11 -77z m-470 -54 c-21 -5 -24 -13 -28 -69 -2 -36 0 -62 5
-62 9 0 13 12 24 90 3 14 5 2 6 -27 1 -67 -5 -81 -33 -76 -21 4 -22 9 -18 59
4 54 4 55 -19 50 -69 -16 -269 -47 -304 -47 -22 0 -53 4 -70 9 -27 8 -19 11
65 26 132 23 340 54 370 54 25 0 25 0 2 -7z m1048 -6 c63 -8 170 -25 239 -37
106 -18 121 -23 96 -30 -17 -5 -47 -9 -67 -9 -35 0 -272 36 -310 47 -16 5 -18
-2 -18 -49 0 -50 -2 -55 -25 -59 -24 -5 -25 -4 -23 51 l2 56 3 -47 c3 -34 8
-48 19 -48 9 0 12 5 8 12 -4 6 -7 35 -6 65 0 38 -3 53 -13 53 -7 0 -16 -8 -18
-17 -4 -14 -5 -12 -6 5 0 12 0 22 2 22 2 0 55 -7 117 -15z m-1532 -83 c-9 -2
-21 -20 -27 -40 l-10 -37 5 40 c7 51 11 56 32 47 16 -6 16 -7 0 -10z m1932 10
c0 -5 -36 -17 -80 -28 -46 -11 -76 -22 -71 -27 6 -6 31 -4 61 3 28 7 53 10 56
7 7 -7 -160 -45 -301 -67 -235 -38 -337 -45 -645 -44 -328 0 -465 11 -720 58
-134 25 -268 61 -190 51 19 -2 45 -7 58 -11 14 -4 22 -2 22 5 0 7 -6 11 -12
10 -7 -1 -26 3 -41 9 -16 7 -33 12 -39 12 -6 0 -9 2 -6 5 3 3 50 -3 105 -14
508 -104 1138 -104 1654 0 54 10 109 24 121 29 30 11 28 11 28 2z m19 -77 l0
-20 -9 20 c-5 11 -9 29 -9 40 l0 20 9 -20 c5 -11 9 -29 9 -40z m-1946 -5 c-3
-11 -7 -20 -9 -20 -2 0 -4 9 -4 20 0 11 4 20 9 20 5 0 7 -9 4 -20z m1931 -68
c10 -40 16 -75 13 -78 -2 -3 -12 26 -21 63 -9 37 -19 77 -23 88 -3 12 -2 16 4
10 5 -5 17 -43 27 -83z m-1977 36 c-3 -8 -6 -5 -6 6 -1 11 2 17 5 13 3 -3 4
-12 1 -19z m2000 -10 c-3 -8 -6 -5 -6 6 -1 11 2 17 5 13 3 -3 4 -12 1 -19z
m-1978 -47 c-6 -29 -13 -50 -16 -47 -3 3 0 28 7 56 16 66 24 59 9 -9z m1988 7
c-3 -8 -6 -5 -6 6 -1 11 2 17 5 13 3 -3 4 -12 1 -19z m-2030 -30 c-3 -7 -5 -2
-5 12 0 14 2 19 5 13 2 -7 2 -19 0 -25z m527 0 c9 -12 16 -33 16 -46 0 -33
-42 -27 -50 8 -3 14 -12 25 -20 25 -11 0 -18 -22 -27 -79 -7 -44 -10 -83 -7
-88 10 -15 24 -8 34 17 10 26 18 29 43 19 9 -3 13 -13 9 -27 -9 -37 -23 -47
-68 -47 -63 0 -75 22 -63 120 13 110 19 120 73 120 35 0 48 -5 60 -22z m1073
-89 c23 -57 42 -107 42 -111 1 -5 -10 -8 -23 -8 -16 0 -27 7 -31 20 -4 14 -15
20 -36 20 -24 0 -29 -4 -29 -24 0 -17 -7 -25 -25 -28 -25 -5 -25 -5 -19 46 3
28 10 78 15 111 5 33 9 63 9 67 0 7 30 17 45 13 6 -1 29 -49 52 -106z m-885
91 l51 0 -8 -112 c-8 -130 -10 -138 -37 -138 -20 0 -20 4 -13 110 6 105 6 110
-13 110 -17 0 -20 -10 -26 -87 -8 -103 -22 -126 -75 -121 -24 2 -35 8 -37 21
-1 9 3 17 10 17 25 0 45 36 51 90 12 111 15 122 31 116 9 -3 38 -6 66 -6z
m696 -25 c-1 -2 -19 -5 -38 -7 -29 -4 -35 -8 -35 -29 0 -20 5 -25 35 -27 48
-5 70 -27 70 -72 0 -53 -17 -70 -82 -79 l-57 -7 -5 60 c-3 34 -8 89 -10 123
l-6 62 63 3 c45 2 63 -1 65 -10 2 -8 2 -15 0 -17z m629 13 c-3 -8 -6 -5 -6 6
-1 11 2 17 5 13 3 -3 4 -12 1 -19z m-1175 -55 c7 -31 18 -58 24 -60 6 -2 18
24 27 57 14 48 21 60 37 60 11 0 20 -6 20 -13 0 -28 -58 -220 -69 -226 -6 -4
-27 -5 -46 -3 -44 5 -51 39 -8 44 35 4 40 22 9 36 -19 8 -26 22 -35 75 -15 84
-14 87 8 87 15 0 22 -13 33 -57z m213 7 c20 -59 35 -57 35 6 0 37 3 44 20 44
17 0 20 -7 20 -46 0 -56 19 -55 35 2 8 29 16 40 33 42 24 4 24 4 2 -78 -4 -16
2 -50 16 -92 l23 -68 -24 0 c-19 0 -26 9 -40 50 -9 28 -21 50 -26 50 -8 0 -13
-42 -12 -87 1 -7 -10 -13 -23 -13 -20 0 -23 5 -26 48 -4 57 -18 56 -35 -3 -10
-32 -19 -44 -37 -47 l-23 -5 18 70 c16 62 16 73 3 110 -16 45 -13 67 10 67 8
0 21 -21 31 -50z m972 8 c-3 -8 -6 -5 -6 6 -1 11 2 17 5 13 3 -3 4 -12 1 -19z
m-2030 -10 c-3 -8 -6 -5 -6 6 -1 11 2 17 5 13 3 -3 4 -12 1 -19z m2011 -53 c0
-16 -2 -15 -8 5 -4 14 -8 34 -8 45 0 16 2 15 8 -5 4 -14 8 -34 8 -45z m29 23
c-3 -8 -6 -5 -6 6 -1 11 2 17 5 13 3 -3 4 -12 1 -19z m-2052 -28 c-9 -41 -17
-33 -9 9 4 17 9 30 11 27 3 -2 2 -19 -2 -36z m302 -115 c153 -29 375 -51 588
-60 324 -14 825 40 1063 114 34 10 62 16 62 12 0 -4 -38 -18 -85 -32 -46 -13
-81 -27 -76 -32 4 -4 43 1 86 13 43 11 79 19 82 17 6 -6 -172 -54 -286 -77
-461 -91 -1034 -89 -1477 5 -121 25 -240 59 -178 50 18 -2 45 -7 60 -11 55
-12 -6 23 -71 41 -33 10 -64 21 -68 25 -5 4 31 -4 80 -17 48 -13 147 -34 220
-48z m-272 25 c13 -5 14 -9 5 -9 -8 0 -24 4 -35 9 -13 5 -14 9 -5 9 8 0 24 -4
35 -9z m656 -235 c46 -55 137 -154 202 -219 l119 -119 124 124 c69 68 161 167
205 221 77 91 83 96 124 100 31 2 41 0 37 -9 -26 -45 -210 -253 -334 -376
l-149 -148 -37 30 c-90 70 -462 476 -462 502 0 3 20 2 44 -1 40 -5 49 -11 127
-105z m-101 -165 c24 -24 26 -57 4 -88 -23 -33 -88 -31 -110 3 -44 68 49 142
106 85z m942 3 c22 -20 23 -70 1 -95 -20 -22 -70 -23 -95 -1 -22 20 -23 70 -1
95 20 22 70 23 95 1z m-671 -682 l73 -49 18 -106 c9 -58 24 -119 33 -135 9
-18 14 -52 13 -83 l-1 -53 -8 60 c-4 33 -17 90 -30 127 l-22 66 -49 4 c-26 1
-48 3 -48 3 0 0 9 -32 20 -70 11 -38 20 -74 19 -80 -1 -21 -30 74 -59 194 -39
163 -41 171 -37 171 3 0 37 -22 78 -49z"/>
<path d="M3528 7000 c-11 -38 -10 -56 3 -43 6 6 9 23 7 39 l-3 29 -7 -25z"/>
<path d="M3890 6946 c0 -20 5 -36 10 -36 6 0 10 13 10 29 0 17 -4 33 -10 36
-6 4 -10 -8 -10 -29z"/>
<path d="M3535 6552 c-6 -4 -8 -22 -4 -42 7 -41 10 -39 12 13 1 20 2 37 2 37
0 0 -5 -4 -10 -8z"/>
<path d="M3885 6500 c3 -5 8 -10 11 -10 2 0 4 5 4 10 0 6 -5 10 -11 10 -5 0
-7 -4 -4 -10z"/>
<path d="M2819 6183 c-19 -31 -23 -52 -24 -113 0 -85 20 -130 64 -149 l26 -11
-22 19 c-27 23 -33 51 -6 30 9 -8 6 1 -8 19 -21 30 -24 43 -22 118 1 50 7 91
14 100 6 8 10 17 7 20 -3 3 -16 -12 -29 -33z"/>
<path d="M4566 6220 c27 -31 43 -76 23 -64 -12 6 -12 5 -1 -9 8 -9 14 -41 13
-77 0 -52 -5 -68 -28 -98 -16 -22 -19 -31 -8 -22 17 14 18 14 6 -7 -6 -13 -17
-23 -23 -23 -6 0 -8 -3 -5 -6 11 -11 56 25 73 58 22 43 23 153 2 193 -9 17
-29 41 -45 55 l-28 25 21 -25z"/>
<path d="M3366 5965 c-20 -15 -20 -15 0 -30 46 -37 54 -38 54 -7 0 25 -15 52
-29 52 -4 0 -15 -7 -25 -15z"/>
<path d="M3495 6120 c-3 -5 -1 -10 4 -10 6 0 11 5 11 10 0 6 -2 10 -4 10 -3 0
-8 -4 -11 -10z"/>
<path d="M3915 6120 c-3 -5 1 -10 10 -10 9 0 13 5 10 10 -3 6 -8 10 -10 10 -2
0 -7 -4 -10 -10z"/>
<path d="M3954 5215 c-10 -8 -14 -15 -8 -15 6 0 17 7 24 15 16 19 9 19 -16 0z"/>
<path d="M3436 5141 c-9 -13 19 -32 38 -25 25 10 19 34 -8 34 -14 0 -27 -4
-30 -9z"/>
<path d="M3942 5133 c4 -22 43 -25 43 -3 0 8 -11 16 -23 18 -19 3 -23 0 -20
-15z"/>
<path d="M3540 4915 c0 -8 2 -15 4 -15 2 0 6 7 10 15 3 8 1 15 -4 15 -6 0 -10
-7 -10 -15z"/>
<path d="M2767 4913 c-21 -24 -31 -68 -19 -89 8 -14 10 -10 16 19 10 52 30 65
52 32 23 -36 28 -25 8 19 -20 40 -33 45 -57 19z"/>
<path d="M4607 4901 c-24 -41 -21 -48 7 -22 24 23 24 23 35 3 6 -12 11 -30 11
-41 0 -11 5 -23 10 -26 20 -12 11 74 -10 95 -26 26 -33 25 -53 -9z"/>
<path d="M2677 4813 c-4 -3 -7 -27 -6 -52 l1 -46 10 38 c7 26 15 37 24 33 17
-7 18 6 2 22 -14 14 -22 15 -31 5z"/>
<path d="M5127 4596 c-4 -10 -1 -13 8 -9 8 3 12 9 9 14 -7 12 -11 11 -17 -5z"/>
<path d="M4300 2304 c-54 -23 -54 -23 -20 -23 19 0 55 10 80 23 36 19 40 23
20 23 -14 0 -50 -10 -80 -23z"/>
<path d="M2275 4609 c-5 -7 -1 -16 9 -21 9 -5 13 -14 10 -20 -4 -7 -2 -8 4 -4
9 5 9 13 1 29 -16 30 -16 30 -24 16z"/>
<path d="M2450 3540 c0 -5 5 -10 11 -10 5 0 7 5 4 10 -3 6 -8 10 -11 10 -2 0
-4 -4 -4 -10z"/>
<path d="M2504 2222 c2 -9 40 -48 86 -85 62 -51 85 -65 91 -55 6 9 1 18 -13
28 -13 8 -55 41 -94 72 -47 37 -71 51 -70 40z m27 -19 c13 -16 12 -17 -3 -4
-10 7 -18 15 -18 17 0 8 8 3 21 -13z"/>
<path d="M3160 4593 c0 -5 4 -14 9 -21 6 -10 10 -9 14 7 3 14 0 21 -9 21 -8 0
-14 -3 -14 -7z"/>
<path d="M4241 4578 c17 -34 19 -34 19 -5 0 18 -5 27 -15 27 -13 0 -14 -4 -4
-22z"/>
<path d="M4804 4485 c-18 -14 -18 -14 0 -15 15 0 17 -5 12 -27 -6 -27 -6 -27
9 -9 16 21 21 66 7 66 -5 0 -17 -7 -28 -15z"/>
<path d="M2170 4447 c-14 -7 -27 -23 -28 -36 -3 -20 -1 -23 20 -18 13 4 41 14
62 22 31 13 36 18 26 30 -15 18 -47 19 -80 2z"/>
<path d="M2212 4359 c-44 -17 -51 -23 -41 -35 26 -32 109 -4 109 37 0 23 -2
23 -68 -2z"/>
<path d="M3062 4310 c10 -30 25 -46 34 -37 8 7 -25 67 -36 67 -5 0 -5 -13 2
-30z"/>
<path d="M3000 4234 c1 -16 39 -56 50 -52 6 2 -3 16 -20 33 -16 16 -30 25 -30
19z"/>
<path d="M2911 4141 c-8 -5 -11 -17 -7 -28 7 -23 56 -72 56 -56 0 6 -7 16 -15
23 -22 18 -18 45 8 58 l22 11 -25 0 c-14 0 -31 -3 -39 -8z"/>
<path d="M2950 4116 c0 -7 55 -36 70 -36 20 0 10 18 -14 24 -13 3 -31 9 -40
12 -9 3 -16 4 -16 0z"/>
<path d="M2995 3965 c-23 -10 -26 -14 -10 -14 31 -1 65 10 59 20 -7 12 -13 11
-49 -6z"/>
<path d="M3052 3887 c-31 -33 -27 -41 8 -15 29 21 39 38 22 38 -5 0 -18 -10
-30 -23z"/>
<path d="M3143 3809 c-20 -26 -34 -59 -25 -59 13 0 44 49 40 62 -2 6 -8 5 -15
-3z"/>
<path d="M3216 3754 c-9 -25 -7 -69 3 -58 14 14 24 74 13 74 -5 0 -13 -7 -16
-16z"/>
<path d="M3320 3720 c0 -22 5 -40 10 -40 6 0 10 18 10 40 0 22 -4 40 -10 40
-5 0 -10 -18 -10 -40z"/>
<path d="M4346 4311 c-18 -35 -19 -41 -7 -41 11 0 36 59 28 66 -3 3 -13 -8
-21 -25z"/>
<path d="M4395 4210 c-16 -16 -26 -32 -24 -35 3 -3 18 9 34 25 16 16 26 32 24
35 -3 3 -18 -9 -34 -25z"/>
<path d="M4478 4138 c27 -14 28 -28 1 -62 -11 -14 -16 -26 -11 -26 11 0 36 28
52 59 14 28 1 41 -40 40 l-25 0 23 -11z"/>
<path d="M4433 4109 c-18 -5 -33 -14 -33 -19 0 -12 0 -12 39 1 17 6 31 15 31
20 0 5 -1 9 -2 8 -2 0 -18 -5 -35 -10z"/>
<path d="M4380 3971 c0 -10 36 -21 65 -20 16 0 13 4 -10 14 -35 16 -55 19 -55
6z"/>
<path d="M4340 3901 c0 -5 14 -19 30 -31 35 -25 40 -13 7 18 -25 24 -37 28
-37 13z"/>
<path d="M4270 3810 c0 -8 9 -26 20 -40 13 -17 20 -20 20 -10 0 8 -9 26 -20
40 -13 17 -20 20 -20 10z"/>
<path d="M4190 3753 c0 -29 12 -63 19 -58 10 6 1 75 -10 75 -5 0 -9 -8 -9 -17z"/>
<path d="M4080 3722 c0 -23 5 -42 13 -45 9 -3 13 7 12 36 0 23 -5 42 -12 44
-9 3 -13 -8 -13 -35z"/>
<path d="M2804 4375 c-6 -14 3 -52 10 -44 2 2 6 16 10 32 7 29 -10 39 -20 12z"/>
<path d="M2560 4363 c1 -10 8 -29 16 -43 l15 -25 -4 28 c-3 20 0 27 12 27 13
1 13 3 -3 15 -26 20 -36 19 -36 -2z"/>
<path d="M4633 4257 c4 -10 7 -32 7 -48 0 -18 4 -28 10 -24 16 10 11 61 -7 76
-15 12 -16 12 -10 -4z"/>
<path d="M4658 4109 c6 -7 12 -24 12 -38 0 -18 3 -22 11 -14 17 17 7 57 -16
61 -16 3 -18 1 -7 -9z"/>
<path d="M2210 3942 c0 -22 1 -22 88 -16 48 4 89 8 91 11 3 2 -1 9 -8 16 -7 7
-42 12 -91 12 -76 0 -80 -1 -80 -23z"/>
<path d="M5077 3873 c-13 -13 -7 -42 11 -47 26 -8 112 0 124 12 6 6 8 18 5 26
-5 12 -21 16 -70 16 -35 0 -67 -3 -70 -7z"/>
<path d="M3558 3861 c-31 -10 -77 -30 -103 -45 -57 -31 -69 -33 -35 -5 17 14
19 17 5 10 -31 -15 -64 -44 -44 -38 27 9 31 -27 38 -321 l6 -274 31 -28 c25
-21 46 -29 95 -35 68 -8 123 -26 150 -51 11 -10 19 -12 24 -5 13 22 68 42 147
56 44 8 87 20 95 26 35 29 38 54 44 324 3 149 9 279 13 290 6 16 -2 25 -41 46
-123 68 -302 89 -425 50z m70 -116 c-11 -25 -10 -29 11 -46 l23 -19 30 41 c28
39 47 46 56 19 3 -9 -2 -11 -16 -8 -15 4 -23 0 -27 -13 -4 -10 -11 -19 -16
-19 -5 0 -9 -4 -9 -10 0 -19 28 -10 33 11 3 12 10 18 17 14 8 -5 8 -10 0 -20
-16 -19 -5 -32 26 -32 14 0 29 -6 33 -12 5 -8 13 -6 27 5 10 8 13 13 7 9 -7
-3 -13 -2 -13 3 0 15 34 40 65 48 17 4 36 12 44 18 12 9 13 7 9 -11 -4 -13 -2
-26 3 -29 5 -3 9 2 9 10 0 9 4 16 9 16 6 0 6 -12 1 -31 -10 -35 -20 -49 -20
-29 0 7 -2 11 -5 8 -3 -3 -1 -17 4 -32 7 -18 7 -26 0 -26 -6 0 -7 -6 -3 -12 4
-7 -5 -2 -19 11 l-27 24 0 -41 c0 -40 2 -42 24 -36 21 5 25 1 31 -25 4 -17 11
-33 16 -36 12 -8 12 -65 -1 -65 -5 0 -10 10 -10 23 0 12 -7 31 -15 41 -12 16
-17 17 -30 6 -11 -9 -13 -16 -5 -24 5 -5 10 -19 10 -31 0 -12 4 -25 9 -30 12
-12 2 -67 -10 -59 -5 3 -9 16 -9 29 0 27 -19 75 -30 75 -4 0 -29 -7 -56 -15
-59 -18 -57 -18 -49 -5 3 6 -3 10 -15 10 -11 0 -23 -7 -26 -15 -4 -8 -18 -15
-34 -15 -25 0 -32 -8 -59 -65 -16 -36 -28 -72 -25 -80 4 -8 1 -15 -4 -15 -17
0 -24 37 -12 60 6 12 10 29 8 38 -6 28 -42 -35 -42 -74 0 -31 -1 -32 -14 -13
-11 16 -11 23 -2 34 18 22 23 205 5 205 -19 0 -23 -19 -13 -60 10 -37 -3 -90
-22 -90 -6 0 -6 9 0 26 13 33 13 84 0 84 -5 0 -10 7 -10 15 0 8 5 15 11 15 5
0 8 4 5 9 -8 12 18 21 42 14 11 -2 23 0 26 6 4 6 23 11 43 11 32 0 35 -2 29
-22 -20 -73 -21 -68 20 -68 22 0 46 5 54 11 11 7 3 8 -28 4 -41 -7 -43 -6 -40
16 2 15 12 26 28 30 16 4 19 7 8 8 -10 1 -18 7 -19 14 0 6 -2 19 -4 28 -2 11
8 20 31 27 39 12 51 2 71 -57 15 -43 16 -62 3 -41 -8 13 -10 12 -10 -2 0 -21
11 -23 27 -7 9 9 8 21 -4 50 -14 36 -14 40 6 65 28 36 27 40 -14 42 -26 2 -35
-1 -35 -13 0 -8 -4 -15 -9 -15 -5 0 -22 -3 -38 -6 -27 -5 -32 -2 -56 38 -37
63 -41 89 -20 115 23 28 27 23 11 -12z m40 -30 c-3 -3 -9 2 -12 12 -6 14 -5
15 5 6 7 -7 10 -15 7 -18z m-62 -37 c8 -16 14 -31 12 -32 -20 -10 -103 -34
-107 -31 -11 12 22 87 42 94 27 11 33 7 53 -31z m212 -273 c-3 -3 -9 2 -12 12
-6 14 -5 15 5 6 7 -7 10 -15 7 -18z m-37 -95 c18 0 20 -4 15 -27 -8 -28 5 -43
37 -43 13 0 17 8 17 39 0 22 6 44 15 51 12 10 15 9 15 -6 1 -11 7 -36 14 -56
13 -36 13 -37 -15 -47 -31 -11 -36 -20 -17 -39 8 -8 8 -12 1 -12 -6 0 -16 7
-23 15 -16 19 -44 19 -60 0 -7 -8 -17 -12 -22 -9 -6 4 -5 10 3 15 12 8 11 11
-1 19 -22 14 -71 12 -100 -5 -14 -8 -33 -14 -43 -15 -14 0 -7 10 23 35 45 38
59 41 93 23 20 -10 21 -10 8 5 -12 15 -11 17 5 17 14 1 12 4 -9 13 -15 7 -34
24 -42 39 l-14 28 39 -20 c22 -11 49 -20 61 -20z"/>
<path d="M3745 3520 c3 -5 8 -10 11 -10 2 0 4 5 4 10 0 6 -5 10 -11 10 -5 0
-7 -4 -4 -10z"/>
<path d="M3941 3846 c2 -2 15 -9 29 -15 24 -11 24 -11 6 3 -16 13 -49 24 -35
12z"/>
<path d="M3210 3436 c0 -11 9 -16 29 -16 31 0 52 15 23 16 -9 1 -25 4 -34 9
-13 5 -18 3 -18 -9z"/>
<path d="M2263 3544 c-4 -11 1 -23 16 -36 28 -22 40 -23 69 -2 34 23 28 44
-12 44 -19 0 -41 3 -50 6 -10 4 -18 -1 -23 -12z"/>
<path d="M2924 3375 c-19 -15 -19 -15 0 -30 23 -17 45 -19 66 -5 12 8 10 10
-11 10 -32 0 -42 9 -28 27 15 18 -2 17 -27 -2z"/>
<path d="M4474 3373 c0 -10 -9 -19 -24 -23 -22 -5 -23 -7 -7 -13 27 -10 41 -9
63 7 19 15 19 15 -1 30 -26 20 -33 20 -31 -1z"/>
<path d="M2230 3346 c0 -19 5 -21 40 -18 56 6 57 17 5 29 -42 10 -45 9 -45
-11z"/>
<path d="M3025 3304 c-17 -13 -18 -16 -5 -24 20 -13 67 -13 75 0 3 6 -5 10
-19 10 -13 0 -26 6 -28 14 -3 13 -6 13 -23 0z"/>
<path d="M4376 3305 c5 -11 -1 -15 -21 -15 -15 0 -24 -4 -20 -10 8 -14 58 -13
73 2 9 9 7 14 -6 24 -23 18 -33 17 -26 -1z"/>
<path d="M3056 2322 c-7 -12 60 -42 92 -41 l27 0 -25 11 c-14 6 -38 17 -54 25
-34 15 -33 15 -40 5z"/>
<path d="M4145 3229 c-4 -6 -16 -8 -27 -6 -16 4 -17 3 -7 -9 15 -19 59 -18 59
0 0 19 -17 29 -25 15z"/>
<path d="M5150 3225 l-45 -12 45 -9 c35 -8 46 -7 48 3 7 26 -3 29 -48 18z"/>
<path d="M4497 3066 c-7 -19 18 -40 39 -32 8 3 14 14 12 23 -4 22 -43 29 -51
9z m34 -9 c-1 -12 -15 -9 -19 4 -3 6 1 10 8 8 6 -3 11 -8 11 -12z"/>
<path d="M4502 2998 c-15 -18 1 -41 24 -36 23 4 26 41 3 46 -9 1 -21 -3 -27
-10z m33 -18 c-3 -5 -10 -10 -16 -10 -5 0 -9 5 -9 10 0 6 7 10 16 10 8 0 12
-4 9 -10z"/>
<path d="M4047 2865 c-4 -8 -3 -16 1 -19 4 -3 9 4 9 15 2 23 -3 25 -10 4z"/>
<path d="M4635 2780 c3 -5 8 -10 11 -10 2 0 4 5 4 10 0 6 -5 10 -11 10 -5 0
-7 -4 -4 -10z"/>
<path d="M4586 2683 c-6 -14 -5 -15 5 -6 7 7 10 15 7 18 -3 3 -9 -2 -12 -12z"/>
<path d="M2242 2899 c-36 -11 -40 -34 -9 -53 23 -15 71 11 75 42 4 25 -10 27
-66 11z"/>
<path d="M5011 2817 c-16 -20 6 -41 65 -62 57 -20 84 -16 84 14 0 15 -14 25
-55 40 -65 25 -79 26 -94 8z"/>
<path d="M3373 2716 c4 -14 47 -21 47 -8 0 5 -11 12 -25 15 -16 3 -24 0 -22
-7z"/>
<path d="M3672 2568 c25 -38 44 -44 67 -24 12 11 21 26 21 34 0 13 -3 12 -19
-2 -20 -18 -61 -15 -61 5 0 5 -5 9 -11 9 -7 0 -6 -8 3 -22z"/>
<path d="M3255 2490 c-4 -6 -1 -17 5 -25 14 -17 46 -20 55 -5 3 6 -3 10 -14
10 -12 0 -21 7 -21 15 0 17 -16 20 -25 5z"/>
<path d="M3326 2421 c-17 -19 -17 -20 3 -30 25 -14 78 -14 86 -1 4 6 -9 10
-31 10 -31 0 -36 3 -31 20 7 25 -5 26 -27 1z"/>
<path d="M2510 2514 c-35 -25 -44 -44 -24 -51 11 -4 70 65 63 72 -2 1 -20 -8
-39 -21z"/>
<path d="M3970 2356 c0 -10 -9 -16 -25 -16 -14 0 -25 -4 -25 -10 0 -14 43 -12
64 3 16 12 16 14 2 26 -14 11 -16 11 -16 -3z"/>
<path d="M3541 2283 c6 -7 22 -13 34 -13 12 0 28 6 34 13 9 11 2 14 -34 14
-36 0 -43 -3 -34 -14z"/>
<path d="M3810 2289 c0 -8 26 -19 44 -19 7 0 20 6 31 13 16 13 13 14 -28 13
-26 -1 -47 -4 -47 -7z"/>
<path d="M4761 2351 c-10 -7 -6 -18 17 -50 29 -40 31 -41 42 -22 18 36 -27 91
-59 72z"/>
<path d="M2686 2399 c-28 -22 -34 -50 -13 -68 11 -8 18 -5 33 12 45 51 47 55
26 66 -16 8 -26 6 -46 -10z"/>
<path d="M3660 2272 c0 -6 10 -23 23 -37 25 -30 43 -27 70 11 22 29 16 44 -8
20 -21 -21 -44 -20 -67 1 -10 9 -18 11 -18 5z"/>
<path d="M4230 1903 c0 -17 -3 -38 -6 -47 -4 -12 0 -16 16 -16 19 0 21 4 15
33 -11 51 -24 68 -25 30z"/>
<path d="M4040 1820 c0 -41 3 -50 18 -50 25 0 42 20 42 50 0 30 -17 50 -42 50
-15 0 -18 -9 -18 -50z"/>
</g>
</svg>
